<?xml version="1.0" encoding="UTF-8" standalone="no"?>
<svg
   viewBox="0 0 302.87 76.1"
   version="1.1"
   id="svg23"
   sodipodi:docname="oe_logo_name.svg"
   inkscape:version="1.4.2 (f4327f4, 2025-05-13)"
   xmlns:inkscape="http://www.inkscape.org/namespaces/inkscape"
   xmlns:sodipodi="http://sodipodi.sourceforge.net/DTD/sodipodi-0.dtd"
   xmlns="http://www.w3.org/2000/svg"
   xmlns:svg="http://www.w3.org/2000/svg">
  <sodipodi:namedview
     id="namedview23"
     pagecolor="#ffffff"
     bordercolor="#000000"
     borderopacity="0.25"
     inkscape:showpageshadow="2"
     inkscape:pageopacity="0.0"
     inkscape:pagecheckerboard="0"
     inkscape:deskcolor="#d1d1d1"
     inkscape:zoom="2.1420758"
     inkscape:cx="263.52943"
     inkscape:cy="59.521705"
     inkscape:window-width="1920"
     inkscape:window-height="1171"
     inkscape:window-x="-9"
     inkscape:window-y="-9"
     inkscape:window-maximized="1"
     inkscape:current-layer="svg23" />
  <defs
     id="defs1">
    <style
       id="style1">.cls-1{isolation:isolate;}.cls-1,.cls-2,.cls-3,.cls-4,.cls-5,.cls-6{fill:none;}.cls-7{fill:#fff;}.cls-2{stroke:#ea6a3f;}.cls-2,.cls-3,.cls-4,.cls-5,.cls-6{mix-blend-mode:multiply;stroke-linecap:round;stroke-miterlimit:10;stroke-width:3.59px;}.cls-3{stroke:#fbd026;}.cls-4{stroke:#d6aacd;}.cls-5{stroke:#2fb6df;}.cls-6{stroke:#b5b5b6;}</style>
  </defs>
  <g
     class="cls-1"
     id="g23">
    <g
       inkscape:groupmode="layer"
       id="layer1"
       inkscape:label="Channel_Maps">
      <path
         style="font-size:45.1723px;line-height:1.25;font-family:'Sofia Sans Extra Condensed';-inkscape-font-specification:'Sofia Sans Extra Condensed, ';fill:#ffffff;stroke-width:0.996449"
         d="m 97.422164,51.840248 q -3.433095,0 -5.239987,-2.213443 -1.806892,-2.213443 -1.806892,-6.6855 V 30.609267 q 0,-4.472057 1.806892,-6.6855 1.806892,-2.213442 5.239987,-2.213442 2.484476,0 4.110676,1.219652 1.62621,1.174479 2.30379,3.387922 0.67758,2.16827 0.31621,5.194814 -0.0904,0.361379 -0.31621,0.361379 h -2.30379 q -0.40655,0 -0.3162,-0.451723 0.27103,-3.387923 -0.67759,-5.10447 -0.903443,-1.76172 -3.116886,-1.76172 -1.987581,0 -3.071716,1.490686 -1.038963,1.490686 -1.038963,4.788264 v 11.880314 q 0,3.252406 1.038963,4.788264 1.084135,1.490686 3.071716,1.490686 2.348959,0 3.207236,-1.852064 0.90344,-1.852065 0.67758,-5.014126 -0.0903,-0.451722 0.31621,-0.451722 h 2.1231 q 0.40655,0 0.45172,0.451722 0.27103,4.652747 -1.44551,7.182396 -1.71655,2.529649 -5.330336,2.529649 z M 117.1173,51.569214 q -0.31621,0 -0.31621,-0.406551 v -16.12651 q 0,-1.490686 -0.45172,-2.168271 -0.45173,-0.722756 -1.44552,-0.722756 -0.90344,0 -1.94241,0.767929 -0.99379,0.722756 -2.12309,2.16827 l -0.22587,-2.439304 q 1.31,-1.626203 2.57483,-2.439304 1.30999,-0.858274 2.80068,-0.858274 1.85206,0 2.80068,1.355169 0.94862,1.355169 0.94862,4.155851 v 16.3072 q 0,0.406551 -0.31621,0.406551 z m -8.58274,0 q -0.31621,0 -0.31621,-0.406551 V 21.123085 q 0,-0.406551 0.31621,-0.406551 h 2.30379 q 0.3162,0 0.3162,0.406551 v 30.039578 q 0,0.406551 -0.3162,0.406551 z m 23.30891,0 q -0.27103,0 -0.31621,-0.406551 -0.0903,-0.813101 -0.18069,-2.032753 -0.0903,-1.264825 -0.0903,-2.123098 L 131.07554,46.78095 V 35.397531 q 0,-1.852064 -0.45172,-2.529649 -0.40655,-0.722756 -1.71655,-0.722756 -1.26482,0 -1.76172,0.722756 -0.49689,0.677585 -0.36138,2.258615 0,0.406551 -0.36138,0.406551 h -1.98758 q -0.45172,0 -0.49689,-0.542068 -0.22586,-2.665165 1.03896,-4.155851 1.31,-1.490686 3.97516,-1.490686 2.75551,0 3.88482,1.309997 1.17448,1.309996 1.17448,4.652746 v 10.841352 q 0,1.806892 0.0452,3.071716 0.0452,1.264825 0.0904,1.897237 0.0452,0.451723 -0.22586,0.451723 z m -4.83344,0.271034 q -1.76172,0 -2.75551,-1.535858 -0.94861,-1.535859 -0.94861,-4.291369 0,-3.071716 1.35516,-4.92378 1.35517,-1.897237 4.42689,-2.213443 l 2.34896,-0.271034 v 2.394132 l -2.03275,0.271034 q -1.58103,0.180689 -2.39414,1.309996 -0.76792,1.129308 -0.76792,3.207234 0,1.490686 0.45172,2.348959 0.45172,0.858274 1.21965,0.858274 0.76793,0 1.53586,-0.58724 0.8131,-0.632412 2.07792,-2.303787 l 0.13552,2.619993 q -1.35517,1.671375 -2.34896,2.394132 -0.99379,0.722757 -2.30379,0.722757 z m 20.0565,-0.271034 q -0.3162,0 -0.3162,-0.406551 v -16.12651 q 0,-1.490686 -0.45173,-2.168271 -0.45172,-0.722756 -1.44551,-0.722756 -0.90345,0 -1.94241,0.767929 -0.99379,0.722756 -2.1231,2.16827 l -0.22586,-2.439304 q 1.31,-1.626203 2.57482,-2.439304 1.31,-0.858274 2.80069,-0.858274 1.85206,0 2.80068,1.355169 0.94862,1.355169 0.94862,4.155851 v 16.3072 q 0,0.406551 -0.31621,0.406551 z m -8.58273,0 q -0.31621,0 -0.31621,-0.406551 v -16.12651 q 0,-1.897237 -0.0452,-3.071717 0,-1.219652 -0.0904,-1.852064 -0.0452,-0.496895 0.27104,-0.496895 h 1.94241 q 0.36137,0 0.40655,0.406551 0.13551,0.858273 0.18069,2.16827 0.0903,1.309996 0.0903,1.987581 l 0.18069,0.271034 v 16.71375 q 0,0.406551 -0.31621,0.406551 z m 24.25753,0 q -0.31621,0 -0.31621,-0.406551 v -16.12651 q 0,-1.490686 -0.45172,-2.168271 -0.45173,-0.722756 -1.44552,-0.722756 -0.90344,0 -1.94241,0.767929 -0.99379,0.722756 -2.12309,2.16827 l -0.22586,-2.439304 q 1.30999,-1.626203 2.57482,-2.439304 1.30999,-0.858274 2.80068,-0.858274 1.85206,0 2.80068,1.355169 0.94862,1.355169 0.94862,4.155851 v 16.3072 q 0,0.406551 -0.31621,0.406551 z m -8.58274,0 q -0.31621,0 -0.31621,-0.406551 v -16.12651 q 0,-1.897237 -0.0452,-3.071717 0,-1.219652 -0.0903,-1.852064 -0.0452,-0.496895 0.27103,-0.496895 h 1.94241 q 0.36138,0 0.40655,0.406551 0.13552,0.858273 0.18069,2.16827 0.0903,1.309996 0.0903,1.987581 l 0.18069,0.271034 v 16.71375 q 0,0.406551 -0.3162,0.406551 z m 20.91478,0.271034 q -3.02654,0 -4.47205,-1.897237 -1.44552,-1.897236 -1.44552,-5.872399 v -7.543774 q 0,-3.7493 1.44552,-5.465848 1.44551,-1.716547 4.29136,-1.716547 2.80069,0 4.2462,1.806892 1.49069,1.76172 1.49069,5.285159 v 4.472057 q 0,0.361379 -0.31621,0.361379 H 172.092 v 2.75551 q 0,2.619993 0.67759,3.794473 0.72275,1.17448 2.30378,1.17448 1.35517,0 1.98758,-0.722757 0.63242,-0.767929 0.54207,-2.258615 -0.0903,-0.451723 0.27104,-0.451723 h 2.16827 q 0.3162,0 0.3162,0.361379 0.0904,2.845854 -1.30999,4.381713 -1.35517,1.535858 -3.97517,1.535858 z M 172.092,38.51442 h 5.60137 v -2.032754 q 0,-2.303787 -0.67759,-3.297578 -0.63241,-1.038962 -2.1231,-1.038962 -1.44551,0 -2.12309,1.038962 -0.67759,1.038963 -0.67759,3.297578 z m 12.51271,13.054794 q -0.31621,0 -0.31621,-0.406551 V 21.123085 q 0,-0.406551 0.31621,-0.406551 h 2.30379 q 0.3162,0 0.3162,0.406551 v 30.039578 q 0,0.406551 -0.3162,0.406551 z m 12.60306,0 q -0.27104,0 -0.27104,-0.406551 l 0.36138,-28.774754 q 0,-0.406551 0.36138,-0.406551 h 3.52344 q 0.36138,0 0.40655,0.316206 l 4.29137,17.662369 4.33654,-17.662369 q 0.0452,-0.316206 0.40655,-0.316206 h 3.52344 q 0.3162,0 0.3162,0.406551 l 0.40655,28.774754 q 0,0.406551 -0.3162,0.406551 h -2.25862 q -0.36138,0 -0.36138,-0.406551 l -0.18068,-18.972365 q 0,-1.309997 0,-2.891027 0,-1.581031 0.0452,-3.026544 h -0.0452 q -0.27104,1.400341 -0.63242,2.800682 -0.36138,1.400341 -0.72275,2.75551 l -4.02034,15.268237 q -0.0452,0.316206 -0.40655,0.316206 h -0.18069 q -0.3162,0 -0.36138,-0.316206 l -4.11068,-15.313409 q -0.36137,-1.355169 -0.67758,-2.710338 -0.31621,-1.400341 -0.58724,-2.800682 h -0.0903 q 0.0903,1.445513 0.0903,3.026544 0,1.535858 0,2.845855 l -0.22586,19.017537 q 0,0.406551 -0.31621,0.406551 z m 29.67822,0 q -0.27103,0 -0.3162,-0.406551 -0.0904,-0.813101 -0.18069,-2.032753 -0.0904,-1.264825 -0.0904,-2.123098 L 226.11806,46.78095 V 35.397531 q 0,-1.852064 -0.45172,-2.529649 -0.40655,-0.722756 -1.71655,-0.722756 -1.26482,0 -1.76172,0.722756 -0.49689,0.677585 -0.36137,2.258615 0,0.406551 -0.36138,0.406551 h -1.98758 q -0.45173,0 -0.4969,-0.542068 -0.22586,-2.665165 1.03896,-4.155851 1.31,-1.490686 3.97517,-1.490686 2.75551,0 3.88481,1.309997 1.17448,1.309996 1.17448,4.652746 v 10.841352 q 0,1.806892 0.0452,3.071716 0.0452,1.264825 0.0903,1.897237 0.0452,0.451723 -0.22586,0.451723 z m -4.83343,0.271034 q -1.76172,0 -2.75551,-1.535858 -0.94862,-1.535859 -0.94862,-4.291369 0,-3.071716 1.35517,-4.92378 1.35517,-1.897237 4.42688,-2.213443 l 2.34896,-0.271034 v 2.394132 l -2.03275,0.271034 q -1.58103,0.180689 -2.39413,1.309996 -0.76793,1.129308 -0.76793,3.207234 0,1.490686 0.45172,2.348959 0.45172,0.858274 1.21965,0.858274 0.76793,0 1.53586,-0.58724 0.8131,-0.632412 2.07793,-2.303787 l 0.13551,2.619993 q -1.35517,1.671375 -2.34896,2.394132 -0.99379,0.722757 -2.30378,0.722757 z m 17.9334,0 q -1.12931,0 -2.25862,-0.361379 -1.12931,-0.361378 -1.98758,-0.858273 l -0.0452,-2.755511 q 0.76793,0.406551 1.6262,0.767929 0.90345,0.361379 1.89724,0.361379 1.17448,0 1.76172,-1.038963 0.58724,-1.084135 0.58724,-3.478267 v -9.44101 q 0,-1.581031 -0.45173,-2.213443 -0.40655,-0.677584 -1.30999,-0.677584 -1.08414,0 -2.16827,0.903446 -1.03897,0.903445 -2.07793,2.348959 l -0.22586,-2.619993 q 1.26482,-1.626203 2.52965,-2.529649 1.31,-0.903446 2.84585,-0.903446 1.89724,0 2.84586,1.309997 0.94862,1.264824 0.94862,4.110679 v 9.802389 q 0,3.658956 -1.17448,5.465848 -1.12931,1.806892 -3.34275,1.806892 z m -6.45964,8.085841 q -0.31621,0 -0.31621,-0.406551 V 34.674774 q 0,-1.626202 -0.0452,-2.710338 0,-1.129307 -0.0903,-1.897236 -0.0452,-0.451723 0.27103,-0.451723 h 1.94241 q 0.36138,0 0.40655,0.406551 0.0903,0.451722 0.13552,1.309996 0.0452,0.813102 0.0903,1.671375 l 0.22586,1.084135 v 25.432004 q 0,0.406551 -0.3162,0.406551 z m 19.37896,-8.085841 q -2.75551,0 -4.02033,-1.716548 -1.26483,-1.716547 -1.03897,-5.014125 0,-0.361378 0.31621,-0.361378 h 2.30379 q 0.27103,0 0.27103,0.316206 -0.0452,2.16827 0.40655,3.071716 0.4969,0.903446 1.85207,0.903446 2.30378,0 2.30378,-2.981372 0,-1.174479 -0.40655,-1.942408 -0.36138,-0.813102 -1.26482,-1.535859 l -2.98137,-2.348959 q -1.40034,-1.084135 -2.03276,-2.439304 -0.63241,-1.400341 -0.63241,-3.34275 0,-2.439304 1.26483,-3.749301 1.30999,-1.355169 3.7493,-1.355169 2.52964,0 3.79447,1.535858 1.31,1.535858 1.03896,4.201024 0,0.361378 -0.3162,0.361378 h -2.25862 q -0.0903,0 -0.22586,-0.04517 -0.0904,-0.04517 -0.0452,-0.406551 0.0903,-1.355169 -0.40655,-2.123098 -0.4969,-0.767929 -1.67138,-0.767929 -2.07792,0 -2.07792,2.34896 0,1.129307 0.40655,1.897236 0.45172,0.767929 1.30999,1.535858 l 2.9362,2.34896 q 1.53586,1.264824 2.07793,2.484476 0.58724,1.219652 0.58724,3.207234 0,2.891027 -1.35517,4.426885 -1.31,1.490686 -3.88482,1.490686 z"
         id="text23"
         transform="scale(0.99644947,1.0035632)"
         aria-label="Channel Maps" />
    </g>
    <g
       id="Circle">
      <circle
         class="cls-7"
         cx="38"
         cy="38"
         r="33.8"
         id="circle16" />
    </g>
    <g
       id="Logo">
      <line
         class="cls-5"
         x1="48.8"
         y1="10"
         x2="57.1"
         y2="59.7"
         id="line16" />
      <line
         class="cls-5"
         x1="28.2"
         y1="21"
         x2="57.1"
         y2="59.7"
         id="line17" />
      <line
         class="cls-4"
         x1="9.1"
         y1="40.5"
         x2="28.2"
         y2="21"
         id="line18" />
      <line
         class="cls-6"
         x1="9.1"
         y1="40.5"
         x2="57.1"
         y2="59.7"
         id="line19" />
      <line
         class="cls-5"
         x1="57.1"
         y1="59.7"
         x2="62.4"
         y2="44.9"
         id="line20" />
      <line
         class="cls-2"
         x1="28.2"
         y1="21"
         x2="62.4"
         y2="44.9"
         id="line21" />
      <line
         class="cls-6"
         x1="9.1"
         y1="40.5"
         x2="62.4"
         y2="44.9"
         id="line22" />
      <line
         class="cls-3"
         x1="48.8"
         y1="10"
         x2="62.4"
         y2="44.9"
         id="line23" />
    </g>
  </g>
</svg>
