<?xml version="1.0" encoding="UTF-8" standalone="no"?>
<!-- Created with Inkscape (http://www.inkscape.org/) -->

<svg
   version="1.1"
   id="svg1"
   width="400"
   height="100.13"
   viewBox="0 0 400 100.13"
   sodipodi:docname="oe_logo_name.svg"
   inkscape:version="1.3.2 (091e20e, 2023-11-25, custom)"
   xmlns:inkscape="http://www.inkscape.org/namespaces/inkscape"
   xmlns:sodipodi="http://sodipodi.sourceforge.net/DTD/sodipodi-0.dtd"
   xmlns="http://www.w3.org/2000/svg"
   xmlns:svg="http://www.w3.org/2000/svg">
  <defs
     id="defs1">
    <clipPath
       clipPathUnits="userSpaceOnUse"
       id="clipPath3">
      <path
         d="M 0,75.1 H 221.306 V 0 H 0 Z"
         id="path3" />
    </clipPath>
    <clipPath
       clipPathUnits="userSpaceOnUse"
       id="clipPath5">
      <path
         d="M 0,75.1 H 221.306 V 0 H 0 Z"
         transform="translate(-97.167002,-23.674201)"
         id="path5" />
    </clipPath>
    <clipPath
       clipPathUnits="userSpaceOnUse"
       id="clipPath7">
      <path
         d="M 0,75.1 H 221.306 V 0 H 0 Z"
         transform="translate(-115.93161,-23.9438)"
         id="path7" />
    </clipPath>
    <clipPath
       clipPathUnits="userSpaceOnUse"
       id="clipPath9">
      <path
         d="M 0,75.1 H 221.306 V 0 H 0 Z"
         transform="translate(-131.68161,-23.9438)"
         id="path9" />
    </clipPath>
    <clipPath
       clipPathUnits="userSpaceOnUse"
       id="clipPath11">
      <path
         d="M 0,75.1 H 221.306 V 0 H 0 Z"
         transform="translate(-143.2002,-23.674201)"
         id="path11" />
    </clipPath>
    <clipPath
       clipPathUnits="userSpaceOnUse"
       id="clipPath13">
      <path
         d="M 0,75.1 H 221.306 V 0 H 0 Z"
         transform="translate(-154.54101,-23.674201)"
         id="path13" />
    </clipPath>
    <clipPath
       clipPathUnits="userSpaceOnUse"
       id="clipPath15">
      <path
         d="M 0,75.1 H 221.306 V 0 H 0 Z"
         transform="translate(-160.9746,-23.9438)"
         id="path15" />
    </clipPath>
    <clipPath
       clipPathUnits="userSpaceOnUse"
       id="clipPath17">
      <path
         d="M 0,75.1 H 221.306 V 0 H 0 Z"
         transform="translate(-170.29,-36.948201)"
         id="path17" />
    </clipPath>
    <clipPath
       clipPathUnits="userSpaceOnUse"
       id="clipPath19">
      <path
         d="M 0,75.1 H 221.306 V 0 H 0 Z"
         transform="translate(-185.63481,-26.778701)"
         id="path19" />
    </clipPath>
    <clipPath
       clipPathUnits="userSpaceOnUse"
       id="clipPath21">
      <path
         d="M 0,75.1 H 221.306 V 0 H 0 Z"
         transform="translate(-203.00391,-39.783101)"
         id="path21" />
    </clipPath>
    <clipPath
       clipPathUnits="userSpaceOnUse"
       id="clipPath23">
      <path
         d="M 0,75.1 H 221.306 V 0 H 0 Z"
         transform="translate(-211.55371,-23.9438)"
         id="path23" />
    </clipPath>
    <clipPath
       clipPathUnits="userSpaceOnUse"
       id="clipPath25">
      <path
         d="M 0,75.1 H 221.306 V 0 H 0 Z"
         transform="translate(-221.8594,-23.9438)"
         id="path25" />
    </clipPath>
    <clipPath
       clipPathUnits="userSpaceOnUse"
       id="clipPath27">
      <path
         d="M 0,75.1 H 221.306 V 0 H 0 Z"
         transform="translate(-93.432602,-31.188901)"
         id="path27" />
    </clipPath>
    <clipPath
       clipPathUnits="userSpaceOnUse"
       id="clipPath29">
      <path
         d="M 0,75.1 H 221.306 V 0 H 0 Z"
         transform="translate(-113.68161,-23.674201)"
         id="path29" />
    </clipPath>
    <clipPath
       clipPathUnits="userSpaceOnUse"
       id="clipPath31">
      <path
         d="M 0,75.1 H 221.306 V 0 H 0 Z"
         transform="translate(-131.0967,-15.618601)"
         id="path31" />
    </clipPath>
    <clipPath
       clipPathUnits="userSpaceOnUse"
       id="clipPath33">
      <path
         d="M 0,75.1 H 221.306 V 0 H 0 Z"
         transform="translate(-146.89161,-23.9438)"
         id="path33" />
    </clipPath>
    <clipPath
       clipPathUnits="userSpaceOnUse"
       id="clipPath35">
      <path
         d="M 0,75.1 H 221.306 V 0 H 0 Z"
         transform="translate(-153.46,-23.9438)"
         id="path35" />
    </clipPath>
    <clipPath
       clipPathUnits="userSpaceOnUse"
       id="clipPath37">
      <path
         d="M 0,75.1 H 221.306 V 0 H 0 Z"
         transform="translate(-164.7559,-23.674201)"
         id="path37" />
    </clipPath>
    <clipPath
       clipPathUnits="userSpaceOnUse"
       id="clipPath39">
      <path
         d="M 0,75.1 H 221.306 V 0 H 0 Z"
         transform="translate(-173.7549,-23.9438)"
         id="path39" />
    </clipPath>
    <clipPath
       clipPathUnits="userSpaceOnUse"
       id="clipPath41">
      <path
         d="M 0,75.1 H 221.306 V 0 H 0 Z"
         transform="translate(-185.76951,-23.674201)"
         id="path41" />
    </clipPath>
    <clipPath
       clipPathUnits="userSpaceOnUse"
       id="clipPath43">
      <path
         d="M 0,75.1 H 221.306 V 0 H 0 Z"
         transform="translate(-192.2041,-23.9438)"
         id="path43" />
    </clipPath>
    <clipPath
       clipPathUnits="userSpaceOnUse"
       id="clipPath45">
      <path
         d="M 0,75.1 H 221.306 V 0 H 0 Z"
         transform="translate(-204.49021,-26.509201)"
         id="path45" />
    </clipPath>
    <clipPath
       clipPathUnits="userSpaceOnUse"
       id="clipPath47">
      <path
         d="M 0,75.1 H 221.306 V 0 H 0 Z"
         transform="translate(-223.02931,-23.9438)"
         id="path47" />
    </clipPath>
    <clipPath
       clipPathUnits="userSpaceOnUse"
       id="clipPath49">
      <path
         d="M 0,75.1 H 221.306 V 0 H 0 Z"
         transform="translate(-98.6074,-23.674201)"
         id="path49" />
    </clipPath>
    <clipPath
       clipPathUnits="userSpaceOnUse"
       id="clipPath51">
      <path
         d="M 0,75.1 H 221.306 V 0 H 0 Z"
         transform="translate(-114.583,-26.509201)"
         id="path51" />
    </clipPath>
    <clipPath
       clipPathUnits="userSpaceOnUse"
       id="clipPath53">
      <path
         d="M 0,75.1 H 221.306 V 0 H 0 Z"
         transform="translate(-124.5723,-23.9438)"
         id="path53" />
    </clipPath>
    <clipPath
       clipPathUnits="userSpaceOnUse"
       id="clipPath55">
      <path
         d="M 0,75.1 H 221.306 V 0 H 0 Z"
         transform="translate(-147.7471,-23.9438)"
         id="path55" />
    </clipPath>
    <clipPath
       clipPathUnits="userSpaceOnUse"
       id="clipPath57">
      <path
         d="M 0,75.1 H 221.306 V 0 H 0 Z"
         transform="translate(-179.60841,-23.9438)"
         id="path57" />
    </clipPath>
    <clipPath
       clipPathUnits="userSpaceOnUse"
       id="clipPath59">
      <path
         d="M 0,75.1 H 221.306 V 0 H 0 Z"
         transform="translate(-191.127,-23.674201)"
         id="path59" />
    </clipPath>
    <clipPath
       clipPathUnits="userSpaceOnUse"
       id="clipPath61">
      <path
         d="M 0,75.1 H 221.306 V 0 H 0 Z"
         transform="translate(-204.9424,-23.9438)"
         id="path61" />
    </clipPath>
    <clipPath
       clipPathUnits="userSpaceOnUse"
       id="clipPath63">
      <path
         d="M 0,75.1 H 221.306 V 0 H 0 Z"
         transform="translate(-216.5068,-23.674201)"
         id="path63" />
    </clipPath>
    <clipPath
       clipPathUnits="userSpaceOnUse"
       id="clipPath65">
      <path
         d="M 0,75.1 H 221.306 V 0 H 0 Z"
         transform="translate(-95.8174,-23.9438)"
         id="path65" />
    </clipPath>
    <clipPath
       clipPathUnits="userSpaceOnUse"
       id="clipPath67">
      <path
         d="M 0,75.1 H 221.306 V 0 H 0 Z"
         transform="translate(-106.3467,-36.948201)"
         id="path67" />
    </clipPath>
    <clipPath
       clipPathUnits="userSpaceOnUse"
       id="clipPath69">
      <path
         d="M 0,75.1 H 221.306 V 0 H 0 Z"
         transform="translate(-118.8115,-23.9438)"
         id="path69" />
    </clipPath>
    <clipPath
       clipPathUnits="userSpaceOnUse"
       id="clipPath71">
      <path
         d="M 0,75.1 H 221.306 V 0 H 0 Z"
         transform="translate(-148.42191,-23.674201)"
         id="path71" />
    </clipPath>
    <clipPath
       clipPathUnits="userSpaceOnUse"
       id="clipPath73">
      <path
         d="M 0,75.1 H 221.306 V 0 H 0 Z"
         transform="translate(-157.1064,-23.9438)"
         id="path73" />
    </clipPath>
    <clipPath
       clipPathUnits="userSpaceOnUse"
       id="clipPath75">
      <path
         d="M 0,75.1 H 221.306 V 0 H 0 Z"
         transform="translate(-171.7764,-23.9438)"
         id="path75" />
    </clipPath>
    <clipPath
       clipPathUnits="userSpaceOnUse"
       id="clipPath77">
      <path
         d="M 0,75.1 H 221.306 V 0 H 0 Z"
         transform="translate(-183.3408,-23.674201)"
         id="path77" />
    </clipPath>
    <clipPath
       clipPathUnits="userSpaceOnUse"
       id="clipPath79">
      <path
         d="M 0,75.1 H 221.306 V 0 H 0 Z"
         transform="translate(-191.7559,-36.948201)"
         id="path79" />
    </clipPath>
    <clipPath
       clipPathUnits="userSpaceOnUse"
       id="clipPath81">
      <path
         d="M 0,75.1 H 221.306 V 0 H 0 Z"
         transform="translate(-95.8174,-23.9438)"
         id="path81" />
    </clipPath>
    <clipPath
       clipPathUnits="userSpaceOnUse"
       id="clipPath83">
      <path
         d="M 0,75.1 H 221.306 V 0 H 0 Z"
         transform="translate(-107.74221,-23.9438)"
         id="path83" />
    </clipPath>
    <clipPath
       clipPathUnits="userSpaceOnUse"
       id="clipPath85">
      <path
         d="M 0,75.1 H 221.306 V 0 H 0 Z"
         transform="translate(-125.69631,-23.9438)"
         id="path85" />
    </clipPath>
    <clipPath
       clipPathUnits="userSpaceOnUse"
       id="clipPath87">
      <path
         d="M 0,75.1 H 221.306 V 0 H 0 Z"
         transform="translate(-136.99221,-23.674201)"
         id="path87" />
    </clipPath>
    <clipPath
       clipPathUnits="userSpaceOnUse"
       id="clipPath89">
      <path
         d="M 0,75.1 H 221.306 V 0 H 0 Z"
         transform="translate(-150.8965,-23.674201)"
         id="path89" />
    </clipPath>
    <clipPath
       clipPathUnits="userSpaceOnUse"
       id="clipPath91">
      <path
         d="M 0,75.1 H 221.306 V 0 H 0 Z"
         transform="translate(-159.3115,-36.948201)"
         id="path91" />
    </clipPath>
    <clipPath
       clipPathUnits="userSpaceOnUse"
       id="clipPath93">
      <path
         d="M 0,75.1 H 221.306 V 0 H 0 Z"
         transform="translate(-174.1162,-39.783101)"
         id="path93" />
    </clipPath>
    <clipPath
       clipPathUnits="userSpaceOnUse"
       id="clipPath95">
      <path
         d="M 0,75.1 H 221.306 V 0 H 0 Z"
         transform="translate(-187.4805,-23.674201)"
         id="path95" />
    </clipPath>
    <clipPath
       clipPathUnits="userSpaceOnUse"
       id="clipPath97">
      <path
         d="M 0,75.1 H 221.306 V 0 H 0 Z"
         transform="translate(-97.8877,-23.674201)"
         id="path97" />
    </clipPath>
    <clipPath
       clipPathUnits="userSpaceOnUse"
       id="clipPath99">
      <path
         d="M 0,75.1 H 221.306 V 0 H 0 Z"
         transform="translate(-116.92191,-23.674201)"
         id="path99" />
    </clipPath>
    <clipPath
       clipPathUnits="userSpaceOnUse"
       id="clipPath101">
      <path
         d="M 0,75.1 H 221.306 V 0 H 0 Z"
         transform="translate(-128.6211,-23.9438)"
         id="path101" />
    </clipPath>
    <clipPath
       clipPathUnits="userSpaceOnUse"
       id="clipPath103">
      <path
         d="M 0,75.1 H 221.306 V 0 H 0 Z"
         transform="translate(-37.500001,-71.400002)"
         id="path103" />
    </clipPath>
    <clipPath
       clipPathUnits="userSpaceOnUse"
       id="clipPath104">
      <path
         d="m 46.505,67.395 h 11.89 v -53.29 h -11.89 z"
         transform="translate(-48.300001,-65.600001)"
         id="path104" />
    </clipPath>
    <clipPath
       clipPathUnits="userSpaceOnUse"
       id="clipPath106">
      <path
         d="M 0,75.1 H 221.306 V 0 H 0 Z"
         transform="matrix(1.3333333,0,0,-1.3333333,0,100.13333)"
         id="path106" />
    </clipPath>
    <clipPath
       clipPathUnits="userSpaceOnUse"
       id="clipPath107">
      <path
         d="m 25.905,56.395 h 32.49 v -42.29 h -32.49 z"
         transform="translate(-27.7,-54.600002)"
         id="path107" />
    </clipPath>
    <clipPath
       clipPathUnits="userSpaceOnUse"
       id="clipPath109">
      <path
         d="M 0,75.1 H 221.306 V 0 H 0 Z"
         transform="matrix(1.3333333,0,0,-1.3333333,0,100.13333)"
         id="path109" />
    </clipPath>
    <clipPath
       clipPathUnits="userSpaceOnUse"
       id="clipPath110">
      <path
         d="M 6.80501,56.395 H 29.495 V 33.305 H 6.80501 Z"
         transform="translate(-8.6000005,-35.100001)"
         id="path110" />
    </clipPath>
    <clipPath
       clipPathUnits="userSpaceOnUse"
       id="clipPath112">
      <path
         d="M 0,75.1 H 221.306 V 0 H 0 Z"
         transform="matrix(1.3333333,0,0,-1.3333333,0,100.13333)"
         id="path112" />
    </clipPath>
    <clipPath
       clipPathUnits="userSpaceOnUse"
       id="clipPath113">
      <path
         d="M 6.80501,36.895 H 58.395 V 14.105 H 6.80501 Z"
         transform="translate(-8.6000005,-35.100001)"
         id="path113" />
    </clipPath>
    <clipPath
       clipPathUnits="userSpaceOnUse"
       id="clipPath115">
      <path
         d="M 0,75.1 H 221.306 V 0 H 0 Z"
         transform="matrix(1.3333333,0,0,-1.3333333,0,100.13333)"
         id="path115" />
    </clipPath>
    <clipPath
       clipPathUnits="userSpaceOnUse"
       id="clipPath116">
      <path
         d="m 54.805,32.495 h 8.89 v -18.39 h -8.89 z"
         transform="translate(-56.600002,-15.900001)"
         id="path116" />
    </clipPath>
    <clipPath
       clipPathUnits="userSpaceOnUse"
       id="clipPath118">
      <path
         d="M 0,75.1 H 221.306 V 0 H 0 Z"
         transform="matrix(1.3333333,0,0,-1.3333333,0,100.13333)"
         id="path118" />
    </clipPath>
    <clipPath
       clipPathUnits="userSpaceOnUse"
       id="clipPath119">
      <path
         d="m 25.905,56.395 h 37.79 v -27.49 h -37.79 z"
         transform="translate(-27.7,-54.600002)"
         id="path119" />
    </clipPath>
    <clipPath
       clipPathUnits="userSpaceOnUse"
       id="clipPath121">
      <path
         d="M 0,75.1 H 221.306 V 0 H 0 Z"
         transform="matrix(1.3333333,0,0,-1.3333333,0,100.13333)"
         id="path121" />
    </clipPath>
    <clipPath
       clipPathUnits="userSpaceOnUse"
       id="clipPath122">
      <path
         d="M 6.80501,36.895 H 63.695 v -7.99 H 6.80501 Z"
         transform="translate(-8.6000005,-35.100001)"
         id="path122" />
    </clipPath>
    <clipPath
       clipPathUnits="userSpaceOnUse"
       id="clipPath124">
      <path
         d="M 0,75.1 H 221.306 V 0 H 0 Z"
         transform="matrix(1.3333333,0,0,-1.3333333,0,100.13333)"
         id="path124" />
    </clipPath>
    <clipPath
       clipPathUnits="userSpaceOnUse"
       id="clipPath125">
      <path
         d="m 46.505,67.395 h 17.19 v -38.49 h -17.19 z"
         transform="translate(-48.300001,-65.600001)"
         id="path125" />
    </clipPath>
    <clipPath
       clipPathUnits="userSpaceOnUse"
       id="clipPath127">
      <path
         d="M 0,75.1 H 221.306 V 0 H 0 Z"
         transform="matrix(1.3333333,0,0,-1.3333333,0,100.13333)"
         id="path127" />
    </clipPath>
  </defs>
  <sodipodi:namedview
     id="namedview1"
     pagecolor="#505050"
     bordercolor="#eeeeee"
     borderopacity="1"
     inkscape:showpageshadow="0"
     inkscape:pageopacity="0"
     inkscape:pagecheckerboard="0"
     inkscape:deskcolor="#505050"
     showgrid="false"
     inkscape:zoom="2.7375"
     inkscape:cx="200"
     inkscape:cy="50.228311"
     inkscape:window-width="1920"
     inkscape:window-height="1009"
     inkscape:window-x="3832"
     inkscape:window-y="5"
     inkscape:window-maximized="1"
     inkscape:current-layer="layer1">
    <inkscape:page
       x="0"
       y="0"
       inkscape:label="1"
       id="page1"
       width="400"
       height="100.13"
       margin="0"
       bleed="0"
       inkscape:export-filename="..\Documents\Repos\channel-maps\source\_static\images\oe_logo_name.svg"
       inkscape:export-xdpi="96"
       inkscape:export-ydpi="96" />
  </sodipodi:namedview>
  <g
     id="layer-MC0"
     inkscape:groupmode="layer"
     inkscape:label="Background"
     style="display:none">
    <path
       id="path1"
       d="M 0,0 H 221.306 V 75.1 H 0 Z"
       style="fill:#000000;fill-opacity:1;fill-rule:nonzero;stroke:none"
       transform="matrix(1.3333333,0,0,-1.3333333,0,100.13333)" />
    <path
       id="path2"
       d="M 0,75.1 H 221.306 V 0 H 0 Z"
       style="fill:none;stroke:#ffffff;stroke-width:1;stroke-linecap:butt;stroke-linejoin:miter;stroke-miterlimit:10;stroke-dasharray:none;stroke-opacity:1"
       transform="matrix(1.3333333,0,0,-1.3333333,0,100.13333)"
       clip-path="url(#clipPath3)" />
  </g>
  <g
     id="layer-MC1"
     inkscape:groupmode="layer"
     inkscape:label="ShuttleDrive"
     style="display:none">
    <path
       id="path4"
       d="m 0,0 c -1.62,0 -2.91,0.359 -3.87,1.079 -0.96,0.721 -1.619,1.703 -1.98,2.948 -0.36,1.244 -0.48,2.662 -0.36,4.252 0.03,0.3 0.136,0.45 0.315,0.45 h 2.25 c 0.24,0 0.345,-0.15 0.315,-0.45 -0.21,-1.83 -0.007,-3.194 0.608,-4.094 0.615,-0.901 1.567,-1.35 2.858,-1.35 1.17,0 2.047,0.352 2.632,1.057 0.585,0.705 0.878,1.807 0.878,3.307 0,1.321 -0.18,2.408 -0.541,3.263 -0.36,0.855 -0.99,1.612 -1.889,2.272 l -3.646,2.88 c -1.23,0.96 -2.137,2.048 -2.722,3.262 -0.585,1.215 -0.877,2.678 -0.877,4.388 0.029,2.13 0.577,3.787 1.642,4.972 1.065,1.185 2.542,1.778 4.432,1.778 2.22,0 3.848,-0.72 4.883,-2.16 1.035,-1.44 1.432,-3.405 1.192,-5.895 0,-0.331 -0.105,-0.495 -0.314,-0.495 H 3.511 c -0.211,0 -0.301,0.164 -0.271,0.495 0.18,1.68 -0.015,2.97 -0.585,3.87 -0.57,0.9 -1.425,1.35 -2.564,1.35 -0.961,0 -1.726,-0.315 -2.296,-0.945 -0.569,-0.63 -0.87,-1.59 -0.899,-2.88 0,-1.2 0.208,-2.22 0.629,-3.06 0.42,-0.84 1.065,-1.605 1.935,-2.295 L 2.971,15.254 C 3.84,14.594 4.538,13.896 5.062,13.162 5.587,12.426 5.97,11.587 6.21,10.642 6.45,9.697 6.57,8.595 6.57,7.335 6.57,5.055 6.037,3.262 4.973,1.957 3.907,0.652 2.25,0 0,0"
       style="fill:#ffffff;fill-opacity:1;fill-rule:nonzero;stroke:none"
       transform="matrix(1.3333333,0,0,-1.3333333,129.556,68.567733)"
       clip-path="url(#clipPath5)" />
    <path
       id="path6"
       d="M 0,0 C -0.21,0 -0.314,0.135 -0.314,0.405 V 16.47 c 0,0.989 -0.151,1.717 -0.451,2.182 -0.299,0.465 -0.78,0.698 -1.439,0.698 -0.601,0 -1.238,-0.248 -1.913,-0.743 -0.675,-0.495 -1.388,-1.223 -2.138,-2.183 l -0.224,2.43 c 0.87,1.081 1.732,1.897 2.587,2.453 0.855,0.555 1.778,0.833 2.767,0.833 1.23,0 2.16,-0.451 2.79,-1.35 0.631,-0.9 0.945,-2.281 0.945,-4.141 V 0.405 C 2.61,0.135 2.505,0 2.296,0 Z M -8.55,0 C -8.76,0 -8.864,0.135 -8.864,0.405 V 30.33 c 0,0.27 0.104,0.404 0.314,0.404 h 2.295 c 0.21,0 0.316,-0.134 0.316,-0.404 V 0.405 C -5.939,0.135 -6.045,0 -6.255,0 Z"
       style="fill:#ffffff;fill-opacity:1;fill-rule:nonzero;stroke:none"
       transform="matrix(1.3333333,0,0,-1.3333333,154.57547,68.208267)"
       clip-path="url(#clipPath7)" />
    <path
       id="path8"
       d="m 0,0 c -0.181,0 -0.301,0.135 -0.36,0.405 -0.061,0.63 -0.113,1.372 -0.158,2.228 -0.044,0.854 -0.067,1.492 -0.067,1.912 l -0.226,0.27 v 16.649 c 0,0.27 0.121,0.406 0.361,0.406 H 1.8 c 0.209,0 0.314,-0.136 0.314,-0.406 V 5.4 C 2.114,4.14 2.13,3.112 2.16,2.317 2.189,1.522 2.22,0.915 2.25,0.495 2.279,0.164 2.189,0 1.979,0 Z m -5.266,-0.27 c -1.38,0 -2.347,0.442 -2.902,1.328 C -8.724,1.942 -9,3.33 -9,5.22 v 16.244 c 0,0.27 0.104,0.406 0.314,0.406 h 2.295 c 0.21,0 0.316,-0.136 0.316,-0.406 V 5.265 c 0,-1.08 0.127,-1.8 0.383,-2.16 0.254,-0.36 0.667,-0.54 1.237,-0.54 0.779,0 1.522,0.299 2.227,0.9 0.705,0.599 1.387,1.41 2.047,2.43 L 0.09,3.375 C -0.69,2.324 -1.53,1.455 -2.431,0.765 -3.33,0.074 -4.275,-0.27 -5.266,-0.27"
       style="fill:#ffffff;fill-opacity:1;fill-rule:nonzero;stroke:none"
       transform="matrix(1.3333333,0,0,-1.3333333,175.57547,68.208267)"
       clip-path="url(#clipPath9)" />
    <path
       id="path10"
       d="m 0,0 c -1.53,0 -2.625,0.464 -3.285,1.395 -0.66,0.929 -0.99,2.49 -0.99,4.679 V 19.349 H -6.21 c -0.24,0 -0.36,0.12 -0.36,0.36 v 2.025 c 0,0.27 0.12,0.405 0.36,0.405 h 2.025 l 0.36,5.49 c 0.029,0.24 0.15,0.36 0.36,0.36 h 1.845 c 0.18,0 0.27,-0.12 0.27,-0.36 v -5.49 H 2.7 c 0.239,0 0.36,-0.135 0.36,-0.405 v -2.025 c 0,-0.24 -0.121,-0.36 -0.36,-0.36 H -1.35 V 6.164 c 0,-1.23 0.15,-2.1 0.45,-2.609 0.299,-0.511 0.81,-0.766 1.53,-0.766 0.39,0 0.766,0.046 1.125,0.136 0.36,0.09 0.689,0.194 0.99,0.314 0.239,0.09 0.36,0.015 0.36,-0.224 V 0.944 C 3.105,0.675 3,0.51 2.79,0.449 2.399,0.329 1.965,0.225 1.485,0.135 1.005,0.045 0.51,0 0,0"
       style="fill:#ffffff;fill-opacity:1;fill-rule:nonzero;stroke:none"
       transform="matrix(1.3333333,0,0,-1.3333333,190.9336,68.567733)"
       clip-path="url(#clipPath11)" />
    <path
       id="path12"
       d="m 0,0 c -1.53,0 -2.625,0.464 -3.285,1.395 -0.66,0.929 -0.99,2.49 -0.99,4.679 V 19.349 H -6.21 c -0.24,0 -0.36,0.12 -0.36,0.36 v 2.025 c 0,0.27 0.12,0.405 0.36,0.405 h 2.025 l 0.36,5.49 c 0.029,0.24 0.15,0.36 0.36,0.36 h 1.845 c 0.18,0 0.27,-0.12 0.27,-0.36 v -5.49 H 2.7 c 0.239,0 0.36,-0.135 0.36,-0.405 v -2.025 c 0,-0.24 -0.121,-0.36 -0.36,-0.36 H -1.35 V 6.164 c 0,-1.23 0.15,-2.1 0.45,-2.609 0.299,-0.511 0.81,-0.766 1.53,-0.766 0.39,0 0.766,0.046 1.125,0.136 0.36,0.09 0.689,0.194 0.99,0.314 0.239,0.09 0.36,0.015 0.36,-0.224 V 0.944 C 3.105,0.675 3,0.51 2.79,0.449 2.399,0.329 1.965,0.225 1.485,0.135 1.005,0.045 0.51,0 0,0"
       style="fill:#ffffff;fill-opacity:1;fill-rule:nonzero;stroke:none"
       transform="matrix(1.3333333,0,0,-1.3333333,206.05467,68.567733)"
       clip-path="url(#clipPath13)" />
    <path
       id="path14"
       d="M 0,0 C -0.21,0 -0.314,0.135 -0.314,0.405 V 30.33 c 0,0.27 0.104,0.404 0.314,0.404 h 2.295 c 0.21,0 0.315,-0.134 0.315,-0.404 V 0.405 C 2.61,0.135 2.505,0 2.295,0 Z"
       style="fill:#ffffff;fill-opacity:1;fill-rule:nonzero;stroke:none"
       transform="matrix(1.3333333,0,0,-1.3333333,214.6328,68.208267)"
       clip-path="url(#clipPath15)" />
    <path
       id="path16"
       d="M 0,0 H 5.58 V 2.025 C 5.58,3.555 5.362,4.658 4.928,5.333 4.492,6.008 3.78,6.345 2.79,6.345 1.83,6.345 1.125,6 0.675,5.31 0.226,4.62 0,3.525 0,2.025 Z m 2.971,-13.274 c -2.011,0 -3.496,0.63 -4.455,1.89 -0.961,1.259 -1.441,3.21 -1.441,5.849 V 1.98 c 0,2.49 0.48,4.305 1.441,5.445 0.959,1.14 2.384,1.71 4.274,1.71 1.86,0 3.277,-0.593 4.253,-1.778 C 8.018,6.172 8.505,4.41 8.505,2.07 v -4.454 c 0,-0.241 -0.106,-0.361 -0.315,-0.361 H 0 V -5.49 c 0,-1.74 0.232,-3 0.697,-3.779 0.465,-0.781 1.223,-1.17 2.274,-1.17 0.899,0 1.558,0.247 1.979,0.742 0.42,0.495 0.6,1.238 0.54,2.228 -0.06,0.3 0.03,0.45 0.27,0.45 h 2.16 c 0.21,0 0.315,-0.12 0.315,-0.36 0.06,-1.89 -0.368,-3.346 -1.282,-4.366 -0.916,-1.019 -2.243,-1.529 -3.982,-1.529"
       style="fill:#ffffff;fill-opacity:1;fill-rule:nonzero;stroke:none"
       transform="matrix(1.3333333,0,0,-1.3333333,227.05333,50.869067)"
       clip-path="url(#clipPath17)" />
    <path
       id="path18"
       d="m 0,0 h 1.846 c 2.219,0 3.801,0.803 4.747,2.407 0.945,1.605 1.418,4.178 1.418,7.718 v 4.77 c 0,3.089 -0.495,5.347 -1.486,6.772 -0.99,1.425 -2.595,2.138 -4.815,2.138 H 0 Z m -2.52,-2.835 c -0.27,0 -0.405,0.135 -0.405,0.405 v 28.664 c 0,0.27 0.12,0.406 0.361,0.406 h 4.41 c 3.089,0 5.377,-0.968 6.862,-2.903 1.484,-1.935 2.228,-4.913 2.228,-8.932 v -4.456 c 0,-4.469 -0.72,-7.784 -2.161,-9.944 -1.44,-2.16 -3.674,-3.24 -6.705,-3.24 z"
       style="fill:#ffffff;fill-opacity:1;fill-rule:nonzero;stroke:none"
       transform="matrix(1.3333333,0,0,-1.3333333,247.51307,64.4284)"
       clip-path="url(#clipPath19)" />
    <path
       id="path20"
       d="M 0,0 -0.18,2.835 C 0.181,3.405 0.593,3.953 1.058,4.478 1.522,5.002 2.032,5.437 2.588,5.783 3.143,6.127 3.735,6.3 4.365,6.3 4.636,6.3 4.86,6.285 5.04,6.255 5.16,6.225 5.243,6.165 5.288,6.075 5.333,5.985 5.355,5.865 5.355,5.715 5.355,5.205 5.348,4.725 5.333,4.275 5.317,3.825 5.28,3.345 5.221,2.835 5.19,2.625 5.085,2.535 4.905,2.565 4.755,2.625 4.598,2.662 4.433,2.678 4.268,2.692 4.08,2.7 3.87,2.7 3.24,2.7 2.565,2.459 1.846,1.98 1.125,1.5 0.51,0.84 0,0 m -2.34,-15.839 c -0.21,0 -0.314,0.134 -0.314,0.405 V 0.63 c 0,1.26 -0.008,2.287 -0.023,3.083 -0.015,0.794 -0.052,1.402 -0.113,1.822 -0.03,0.33 0.061,0.495 0.27,0.495 h 2.071 C -0.3,6.03 -0.21,5.895 -0.18,5.625 -0.12,5.025 -0.061,4.298 0,3.443 0.061,2.588 0.091,1.935 0.091,1.485 l 0.18,-0.27 v -16.649 c 0,-0.271 -0.106,-0.405 -0.316,-0.405 z"
       style="fill:#ffffff;fill-opacity:1;fill-rule:nonzero;stroke:none"
       transform="matrix(1.3333333,0,0,-1.3333333,270.67187,47.0892)"
       clip-path="url(#clipPath21)" />
    <path
       id="path22"
       d="m 0,0 c -0.21,0 -0.314,0.135 -0.314,0.405 v 21.059 c 0,0.27 0.104,0.406 0.314,0.406 h 2.295 c 0.21,0 0.315,-0.136 0.315,-0.406 V 0.405 C 2.61,0.135 2.505,0 2.295,0 Z m 1.17,25.875 c -0.66,0 -1.155,0.164 -1.484,0.495 -0.332,0.329 -0.496,0.81 -0.496,1.44 v 0.404 c 0,0.631 0.164,1.118 0.496,1.463 0.329,0.344 0.824,0.517 1.484,0.517 0.66,0 1.147,-0.173 1.463,-0.517 0.314,-0.345 0.472,-0.832 0.472,-1.463 V 27.81 C 3.105,27.18 2.947,26.699 2.633,26.37 2.317,26.039 1.83,25.875 1.17,25.875"
       style="fill:#ffffff;fill-opacity:1;fill-rule:nonzero;stroke:none"
       transform="matrix(1.3333333,0,0,-1.3333333,282.0716,68.208267)"
       clip-path="url(#clipPath23)" />
    <path
       id="path24"
       d="m 0,0 c -0.15,0 -0.255,0.104 -0.315,0.315 l -4.41,21.104 c -0.06,0.3 0.015,0.451 0.225,0.451 h 2.52 c 0.209,0 0.33,-0.106 0.36,-0.315 L 0.585,8.955 C 0.765,7.994 0.93,7.027 1.08,6.053 1.229,5.077 1.365,4.109 1.485,3.15 h 0.09 C 1.665,4.109 1.784,5.085 1.935,6.075 2.085,7.065 2.25,8.039 2.43,9 l 2.34,12.555 c 0.03,0.209 0.135,0.315 0.315,0.315 h 2.52 c 0.209,0 0.27,-0.166 0.18,-0.495 L 3.42,0.315 C 3.39,0.104 3.255,0 3.015,0 Z"
       style="fill:#ffffff;fill-opacity:1;fill-rule:nonzero;stroke:none"
       transform="matrix(1.3333333,0,0,-1.3333333,295.81253,68.208267)"
       clip-path="url(#clipPath25)" />
  </g>
  <g
     id="layer-MC2"
     inkscape:groupmode="layer"
     inkscape:label="Acquisition Board"
     style="display:none">
    <path
       id="path26"
       d="M 0,0 0.54,2.835 H 7.29 L 7.92,0 Z m -3.601,-7.245 c -0.209,0 -0.298,0.149 -0.269,0.45 l 5.849,28.71 c 0.03,0.209 0.166,0.314 0.406,0.314 h 3.15 c 0.239,0 0.374,-0.105 0.404,-0.314 l 5.896,-28.71 c 0.029,-0.301 -0.061,-0.45 -0.271,-0.45 H 9.09 c -0.18,0 -0.301,0.09 -0.361,0.269 L 5.085,12.509 C 4.874,13.559 4.672,14.602 4.478,15.637 4.282,16.672 4.109,17.714 3.96,18.764 H 3.87 C 3.72,17.714 3.562,16.672 3.397,15.637 3.232,14.602 3.044,13.544 2.835,12.464 l -3.646,-19.44 c -0.03,-0.179 -0.134,-0.269 -0.314,-0.269 z"
       style="fill:#ffffff;fill-opacity:1;fill-rule:nonzero;stroke:none"
       transform="matrix(1.3333333,0,0,-1.3333333,124.5768,58.548133)"
       clip-path="url(#clipPath27)" />
    <path
       id="path28"
       d="m 0,0 c -2.011,0 -3.496,0.607 -4.455,1.822 -0.961,1.215 -1.441,3.082 -1.441,5.603 v 7.604 c 0,2.49 0.48,4.343 1.441,5.557 0.959,1.216 2.444,1.823 4.455,1.823 1.229,0 2.265,-0.255 3.104,-0.765 0.84,-0.51 1.456,-1.245 1.845,-2.205 0.39,-0.96 0.54,-2.115 0.45,-3.465 0,-0.36 -0.12,-0.54 -0.36,-0.54 H 2.925 c -0.12,0 -0.203,0.037 -0.248,0.112 -0.045,0.075 -0.053,0.173 -0.023,0.293 0.06,1.17 -0.134,2.093 -0.585,2.767 -0.45,0.676 -1.14,1.013 -2.069,1.013 -1.051,0 -1.809,-0.353 -2.273,-1.057 -0.465,-0.706 -0.698,-1.913 -0.698,-3.623 V 7.47 c 0,-1.651 0.233,-2.835 0.698,-3.556 0.464,-0.72 1.222,-1.079 2.273,-1.079 0.929,0 1.604,0.299 2.024,0.899 0.42,0.6 0.6,1.531 0.54,2.79 0,0.33 0.12,0.496 0.361,0.496 h 2.114 c 0.24,0 0.36,-0.135 0.36,-0.406 0,-2.19 -0.442,-3.84 -1.327,-4.95 C 3.187,0.555 1.829,0 0,0"
       style="fill:#ffffff;fill-opacity:1;fill-rule:nonzero;stroke:none"
       transform="matrix(1.3333333,0,0,-1.3333333,151.57547,68.567733)"
       clip-path="url(#clipPath29)" />
    <path
       id="path30"
       d="M 0,0 C -0.181,0 -0.271,0.135 -0.271,0.405 V 27.27 c -0.389,0.09 -0.839,0.18 -1.349,0.27 -0.511,0.09 -0.961,0.135 -1.351,0.135 -0.989,0 -1.702,-0.36 -2.136,-1.08 -0.436,-0.72 -0.654,-1.83 -0.654,-3.33 v -9.584 c 0,-1.021 0.143,-1.741 0.428,-2.16 0.285,-0.421 0.758,-0.63 1.418,-0.63 0.659,0 1.356,0.284 2.092,0.854 0.735,0.569 1.432,1.335 2.093,2.295 L 0.495,11.431 C -0.346,10.351 -1.216,9.518 -2.115,8.933 -3.016,8.348 -3.931,8.056 -4.86,8.056 c -1.321,0 -2.288,0.433 -2.903,1.304 -0.615,0.869 -0.923,2.235 -0.923,4.095 v 9.899 c 0,2.581 0.48,4.411 1.441,5.491 0.96,1.08 2.265,1.62 3.915,1.62 1.05,0 2.039,-0.106 2.97,-0.315 0.929,-0.211 1.934,-0.376 3.014,-0.495 V 0.405 C 2.654,0.135 2.564,0 2.385,0 Z"
       style="fill:#ffffff;fill-opacity:1;fill-rule:nonzero;stroke:none"
       transform="matrix(1.3333333,0,0,-1.3333333,174.7956,79.308533)"
       clip-path="url(#clipPath31)" />
    <path
       id="path32"
       d="m 0,0 c -0.181,0 -0.301,0.135 -0.36,0.405 -0.061,0.63 -0.113,1.372 -0.158,2.228 -0.044,0.854 -0.067,1.492 -0.067,1.912 l -0.226,0.27 v 16.649 c 0,0.27 0.121,0.406 0.361,0.406 H 1.8 c 0.209,0 0.314,-0.136 0.314,-0.406 V 5.4 C 2.114,4.14 2.13,3.112 2.16,2.317 2.189,1.522 2.22,0.915 2.25,0.495 2.279,0.164 2.189,0 1.979,0 Z m -5.266,-0.27 c -1.38,0 -2.347,0.442 -2.902,1.328 C -8.724,1.942 -9,3.33 -9,5.22 v 16.244 c 0,0.27 0.104,0.406 0.314,0.406 h 2.295 c 0.21,0 0.316,-0.136 0.316,-0.406 V 5.265 c 0,-1.08 0.127,-1.8 0.383,-2.16 0.254,-0.36 0.667,-0.54 1.237,-0.54 0.779,0 1.522,0.299 2.227,0.9 0.705,0.599 1.387,1.41 2.047,2.43 L 0.09,3.375 C -0.69,2.324 -1.53,1.455 -2.431,0.765 -3.33,0.074 -4.275,-0.27 -5.266,-0.27"
       style="fill:#ffffff;fill-opacity:1;fill-rule:nonzero;stroke:none"
       transform="matrix(1.3333333,0,0,-1.3333333,195.85547,68.208267)"
       clip-path="url(#clipPath33)" />
    <path
       id="path34"
       d="m 0,0 c -0.21,0 -0.314,0.135 -0.314,0.405 v 21.059 c 0,0.27 0.104,0.406 0.314,0.406 h 2.295 c 0.21,0 0.315,-0.136 0.315,-0.406 V 0.405 C 2.61,0.135 2.505,0 2.295,0 Z m 1.17,25.875 c -0.66,0 -1.155,0.164 -1.484,0.495 -0.332,0.329 -0.496,0.81 -0.496,1.44 v 0.404 c 0,0.631 0.164,1.118 0.496,1.463 0.329,0.344 0.824,0.517 1.484,0.517 0.66,0 1.147,-0.173 1.463,-0.517 0.314,-0.345 0.472,-0.832 0.472,-1.463 V 27.81 C 3.105,27.18 2.947,26.699 2.633,26.37 2.317,26.039 1.83,25.875 1.17,25.875"
       style="fill:#ffffff;fill-opacity:1;fill-rule:nonzero;stroke:none"
       transform="matrix(1.3333333,0,0,-1.3333333,204.61333,68.208267)"
       clip-path="url(#clipPath35)" />
    <path
       id="path36"
       d="m 0,0 c -1.83,0 -3.166,0.569 -4.005,1.71 -0.841,1.14 -1.185,2.805 -1.035,4.994 0,0.24 0.104,0.36 0.314,0.36 h 2.295 c 0.181,0 0.271,-0.105 0.271,-0.314 -0.03,-1.44 0.112,-2.461 0.428,-3.061 0.314,-0.6 0.921,-0.9 1.822,-0.9 1.53,0 2.295,0.99 2.295,2.971 0,0.779 -0.128,1.431 -0.383,1.957 C 1.747,8.241 1.319,8.744 0.72,9.225 l -2.97,2.339 c -0.931,0.72 -1.605,1.537 -2.025,2.452 -0.42,0.915 -0.63,2.018 -0.63,3.308 0,1.62 0.427,2.872 1.282,3.758 0.855,0.884 2.093,1.327 3.713,1.327 1.68,0 2.947,-0.511 3.803,-1.53 0.854,-1.02 1.192,-2.415 1.011,-4.185 0,-0.24 -0.105,-0.36 -0.314,-0.36 H 2.34 c -0.061,0 -0.128,0.015 -0.202,0.045 -0.075,0.03 -0.099,0.164 -0.069,0.405 0.061,0.9 -0.075,1.605 -0.404,2.115 -0.331,0.51 -0.886,0.765 -1.665,0.765 -1.381,0 -2.07,-0.78 -2.07,-2.34 0,-0.75 0.142,-1.38 0.427,-1.89 0.285,-0.511 0.712,-1.02 1.283,-1.53 l 2.924,-2.34 C 3.584,10.725 4.282,9.899 4.657,9.09 5.032,8.279 5.22,7.214 5.22,5.895 5.22,3.975 4.776,2.512 3.893,1.507 3.007,0.502 1.71,0 0,0"
       style="fill:#ffffff;fill-opacity:1;fill-rule:nonzero;stroke:none"
       transform="matrix(1.3333333,0,0,-1.3333333,219.67453,68.567733)"
       clip-path="url(#clipPath37)" />
    <path
       id="path38"
       d="m 0,0 c -0.21,0 -0.314,0.135 -0.314,0.405 v 21.059 c 0,0.27 0.104,0.406 0.314,0.406 h 2.295 c 0.21,0 0.315,-0.136 0.315,-0.406 V 0.405 C 2.61,0.135 2.505,0 2.295,0 Z m 1.17,25.875 c -0.66,0 -1.155,0.164 -1.484,0.495 -0.332,0.329 -0.496,0.81 -0.496,1.44 v 0.404 c 0,0.631 0.164,1.118 0.496,1.463 0.329,0.344 0.824,0.517 1.484,0.517 0.66,0 1.147,-0.173 1.463,-0.517 0.314,-0.345 0.472,-0.832 0.472,-1.463 V 27.81 C 3.105,27.18 2.947,26.699 2.633,26.37 2.317,26.039 1.83,25.875 1.17,25.875"
       style="fill:#ffffff;fill-opacity:1;fill-rule:nonzero;stroke:none"
       transform="matrix(1.3333333,0,0,-1.3333333,231.6732,68.208267)"
       clip-path="url(#clipPath39)" />
    <path
       id="path40"
       d="m 0,0 c -1.53,0 -2.625,0.464 -3.285,1.395 -0.66,0.929 -0.99,2.49 -0.99,4.679 V 19.349 H -6.21 c -0.24,0 -0.36,0.12 -0.36,0.36 v 2.025 c 0,0.27 0.12,0.405 0.36,0.405 h 2.025 l 0.36,5.49 c 0.029,0.24 0.15,0.36 0.36,0.36 h 1.845 c 0.18,0 0.27,-0.12 0.27,-0.36 v -5.49 H 2.7 c 0.239,0 0.36,-0.135 0.36,-0.405 v -2.025 c 0,-0.24 -0.121,-0.36 -0.36,-0.36 H -1.35 V 6.164 c 0,-1.23 0.15,-2.1 0.45,-2.609 0.299,-0.511 0.81,-0.766 1.53,-0.766 0.39,0 0.766,0.046 1.125,0.136 0.36,0.09 0.689,0.194 0.99,0.314 0.239,0.09 0.36,0.015 0.36,-0.224 V 0.944 C 3.105,0.675 3,0.51 2.79,0.449 2.399,0.329 1.965,0.225 1.485,0.135 1.005,0.045 0.51,0 0,0"
       style="fill:#ffffff;fill-opacity:1;fill-rule:nonzero;stroke:none"
       transform="matrix(1.3333333,0,0,-1.3333333,247.69267,68.567733)"
       clip-path="url(#clipPath41)" />
    <path
       id="path42"
       d="m 0,0 c -0.21,0 -0.314,0.135 -0.314,0.405 v 21.059 c 0,0.27 0.104,0.406 0.314,0.406 h 2.295 c 0.21,0 0.315,-0.136 0.315,-0.406 V 0.405 C 2.61,0.135 2.505,0 2.295,0 Z m 1.17,25.875 c -0.66,0 -1.155,0.164 -1.484,0.495 -0.332,0.329 -0.496,0.81 -0.496,1.44 v 0.404 c 0,0.631 0.164,1.118 0.496,1.463 0.329,0.344 0.824,0.517 1.484,0.517 0.66,0 1.147,-0.173 1.463,-0.517 0.314,-0.345 0.472,-0.832 0.472,-1.463 V 27.81 C 3.105,27.18 2.947,26.699 2.633,26.37 2.317,26.039 1.83,25.875 1.17,25.875"
       style="fill:#ffffff;fill-opacity:1;fill-rule:nonzero;stroke:none"
       transform="matrix(1.3333333,0,0,-1.3333333,256.27213,68.208267)"
       clip-path="url(#clipPath43)" />
    <path
       id="path44"
       d="m 0,0 c 1.049,0 1.807,0.344 2.272,1.034 0.464,0.691 0.698,1.83 0.698,3.42 v 7.74 c 0,1.62 -0.234,2.79 -0.698,3.51 -0.465,0.72 -1.223,1.08 -2.272,1.08 -1.051,0 -1.809,-0.36 -2.273,-1.08 -0.465,-0.72 -0.698,-1.89 -0.698,-3.51 v -7.74 c 0,-1.59 0.241,-2.729 0.721,-3.42 C -1.771,0.344 -1.021,0 0,0 m 0,-2.835 c -2.011,0 -3.496,0.592 -4.455,1.777 -0.961,1.185 -1.441,3.007 -1.441,5.467 v 7.875 c 0,2.49 0.48,4.327 1.441,5.512 0.959,1.185 2.444,1.778 4.455,1.778 2.009,0 3.494,-0.593 4.454,-1.778 0.96,-1.185 1.441,-3.022 1.441,-5.512 V 4.409 C 5.895,1.949 5.414,0.127 4.454,-1.058 3.494,-2.243 2.009,-2.835 0,-2.835"
       style="fill:#ffffff;fill-opacity:1;fill-rule:nonzero;stroke:none"
       transform="matrix(1.3333333,0,0,-1.3333333,272.6536,64.787733)"
       clip-path="url(#clipPath45)" />
    <path
       id="path46"
       d="M 0,0 C -0.21,0 -0.314,0.135 -0.314,0.405 V 16.47 c 0,0.989 -0.151,1.717 -0.451,2.182 -0.299,0.465 -0.78,0.698 -1.439,0.698 -0.601,0 -1.238,-0.248 -1.913,-0.743 -0.675,-0.495 -1.388,-1.223 -2.138,-2.183 l -0.224,2.43 c 0.87,1.081 1.732,1.897 2.587,2.453 0.855,0.555 1.778,0.833 2.767,0.833 1.23,0 2.16,-0.451 2.79,-1.35 0.631,-0.9 0.945,-2.281 0.945,-4.141 V 0.405 C 2.61,0.135 2.505,0 2.296,0 Z M -8.55,0 C -8.76,0 -8.864,0.135 -8.864,0.405 V 16.47 c 0,1.259 -0.008,2.287 -0.023,3.082 -0.015,0.795 -0.052,1.402 -0.113,1.823 -0.03,0.329 0.061,0.495 0.271,0.495 h 1.934 c 0.24,0 0.375,-0.136 0.405,-0.406 0.09,-0.57 0.158,-1.29 0.203,-2.159 0.045,-0.871 0.068,-1.531 0.068,-1.98 l 0.18,-0.27 V 0.405 C -5.939,0.135 -6.045,0 -6.255,0 Z"
       style="fill:#ffffff;fill-opacity:1;fill-rule:nonzero;stroke:none"
       transform="matrix(1.3333333,0,0,-1.3333333,297.3724,68.208267)"
       clip-path="url(#clipPath47)" />
  </g>
  <g
     id="layer-MC3"
     inkscape:groupmode="layer"
     inkscape:label="Commutators"
     style="display:none">
    <path
       id="path48"
       d="m 0,0 c -2.28,0 -4.021,0.734 -5.22,2.204 -1.2,1.47 -1.801,3.691 -1.801,6.66 v 12.285 c 0,2.97 0.601,5.19 1.801,6.66 1.199,1.47 2.94,2.205 5.22,2.205 1.649,0 3.015,-0.398 4.095,-1.192 1.08,-0.796 1.844,-1.921 2.295,-3.375 0.45,-1.456 0.554,-3.188 0.315,-5.198 -0.06,-0.24 -0.165,-0.36 -0.315,-0.36 H 4.095 c -0.27,0 -0.375,0.15 -0.315,0.45 0.18,2.25 -0.038,3.953 -0.653,5.108 C 2.512,26.601 1.47,27.179 0,27.179 c -1.32,0 -2.333,-0.495 -3.037,-1.485 -0.706,-0.99 -1.058,-2.58 -1.058,-4.77 V 9.09 c 0,-2.16 0.352,-3.743 1.058,-4.748 C -2.333,3.337 -1.32,2.835 0,2.835 c 1.56,0 2.633,0.614 3.218,1.845 0.585,1.229 0.802,2.894 0.652,4.995 -0.06,0.299 0.045,0.45 0.315,0.45 H 6.3 c 0.27,0 0.42,-0.151 0.45,-0.45 C 6.93,6.584 6.449,4.199 5.31,2.52 4.17,0.839 2.399,0 0,0"
       style="fill:#ffffff;fill-opacity:1;fill-rule:nonzero;stroke:none"
       transform="matrix(1.3333333,0,0,-1.3333333,131.47653,68.567733)"
       clip-path="url(#clipPath49)" />
    <path
       id="path50"
       d="m 0,0 c 1.049,0 1.807,0.344 2.272,1.034 0.464,0.691 0.698,1.83 0.698,3.42 v 7.74 c 0,1.62 -0.234,2.79 -0.698,3.51 -0.465,0.72 -1.223,1.08 -2.272,1.08 -1.051,0 -1.809,-0.36 -2.273,-1.08 -0.465,-0.72 -0.698,-1.89 -0.698,-3.51 v -7.74 c 0,-1.59 0.241,-2.729 0.721,-3.42 C -1.771,0.344 -1.021,0 0,0 m 0,-2.835 c -2.011,0 -3.496,0.592 -4.455,1.777 -0.961,1.185 -1.441,3.007 -1.441,5.467 v 7.875 c 0,2.49 0.48,4.327 1.441,5.512 0.959,1.185 2.444,1.778 4.455,1.778 2.009,0 3.494,-0.593 4.454,-1.778 0.96,-1.185 1.441,-3.022 1.441,-5.512 V 4.409 C 5.895,1.949 5.414,0.127 4.454,-1.058 3.494,-2.243 2.009,-2.835 0,-2.835"
       style="fill:#ffffff;fill-opacity:1;fill-rule:nonzero;stroke:none"
       transform="matrix(1.3333333,0,0,-1.3333333,152.77733,64.787733)"
       clip-path="url(#clipPath51)" />
    <path
       id="path52"
       d="M 0,0 C -0.21,0 -0.314,0.135 -0.314,0.405 V 16.47 c 0,1.259 -0.008,2.287 -0.023,3.082 -0.016,0.795 -0.053,1.402 -0.113,1.823 -0.03,0.329 0.06,0.495 0.27,0.495 h 2.071 c 0.149,0 0.239,-0.136 0.269,-0.406 0.06,-0.39 0.097,-0.764 0.112,-1.125 0.015,-0.36 0.038,-0.735 0.068,-1.125 0.78,0.93 1.553,1.65 2.318,2.161 0.765,0.509 1.612,0.765 2.542,0.765 0.81,0 1.5,-0.241 2.071,-0.721 0.569,-0.48 0.959,-1.2 1.169,-2.16 0.749,0.901 1.507,1.605 2.273,2.116 0.765,0.509 1.612,0.765 2.542,0.765 1.08,0 1.928,-0.421 2.543,-1.261 0.614,-0.84 0.923,-2.055 0.923,-3.645 V 0.405 C 18.721,0.135 18.615,0 18.405,0 H 16.11 C 15.9,0 15.795,0.135 15.795,0.405 V 16.83 c 0,0.869 -0.135,1.507 -0.404,1.912 -0.271,0.405 -0.691,0.608 -1.261,0.608 -0.54,0 -1.095,-0.219 -1.665,-0.653 -0.57,-0.435 -1.17,-1.057 -1.8,-1.867 V 0.405 C 10.665,0.135 10.56,0 10.351,0 H 8.056 C 7.845,0 7.74,0.135 7.74,0.405 V 16.83 c 0,0.869 -0.135,1.507 -0.405,1.912 -0.27,0.405 -0.69,0.608 -1.26,0.608 -0.54,0 -1.096,-0.219 -1.665,-0.653 C 3.84,18.262 3.24,17.64 2.61,16.83 V 0.405 C 2.61,0.135 2.505,0 2.295,0 Z"
       style="fill:#ffffff;fill-opacity:1;fill-rule:nonzero;stroke:none"
       transform="matrix(1.3333333,0,0,-1.3333333,166.0964,68.208267)"
       clip-path="url(#clipPath53)" />
    <path
       id="path54"
       d="M 0,0 C -0.21,0 -0.314,0.135 -0.314,0.405 V 16.47 c 0,1.259 -0.008,2.287 -0.023,3.082 -0.016,0.795 -0.053,1.402 -0.113,1.823 -0.03,0.329 0.06,0.495 0.27,0.495 h 2.071 c 0.149,0 0.239,-0.136 0.269,-0.406 0.06,-0.39 0.097,-0.764 0.112,-1.125 0.015,-0.36 0.038,-0.735 0.068,-1.125 0.78,0.93 1.553,1.65 2.318,2.161 0.765,0.509 1.612,0.765 2.542,0.765 0.81,0 1.5,-0.241 2.071,-0.721 0.569,-0.48 0.959,-1.2 1.169,-2.16 0.749,0.901 1.507,1.605 2.273,2.116 0.765,0.509 1.612,0.765 2.542,0.765 1.08,0 1.928,-0.421 2.543,-1.261 0.614,-0.84 0.923,-2.055 0.923,-3.645 V 0.405 C 18.721,0.135 18.615,0 18.405,0 H 16.11 C 15.9,0 15.795,0.135 15.795,0.405 V 16.83 c 0,0.869 -0.135,1.507 -0.404,1.912 -0.271,0.405 -0.691,0.608 -1.261,0.608 -0.54,0 -1.095,-0.219 -1.665,-0.653 -0.57,-0.435 -1.17,-1.057 -1.8,-1.867 V 0.405 C 10.665,0.135 10.56,0 10.351,0 H 8.056 C 7.845,0 7.74,0.135 7.74,0.405 V 16.83 c 0,0.869 -0.135,1.507 -0.405,1.912 -0.27,0.405 -0.69,0.608 -1.26,0.608 -0.54,0 -1.096,-0.219 -1.665,-0.653 C 3.84,18.262 3.24,17.64 2.61,16.83 V 0.405 C 2.61,0.135 2.505,0 2.295,0 Z"
       style="fill:#ffffff;fill-opacity:1;fill-rule:nonzero;stroke:none"
       transform="matrix(1.3333333,0,0,-1.3333333,196.99613,68.208267)"
       clip-path="url(#clipPath55)" />
    <path
       id="path56"
       d="m 0,0 c -0.181,0 -0.301,0.135 -0.36,0.405 -0.061,0.63 -0.113,1.372 -0.158,2.228 -0.044,0.854 -0.067,1.492 -0.067,1.912 l -0.226,0.27 v 16.649 c 0,0.27 0.121,0.406 0.361,0.406 H 1.8 c 0.209,0 0.314,-0.136 0.314,-0.406 V 5.4 C 2.114,4.14 2.13,3.112 2.16,2.317 2.189,1.522 2.22,0.915 2.25,0.495 2.279,0.164 2.189,0 1.979,0 Z m -5.266,-0.27 c -1.38,0 -2.347,0.442 -2.902,1.328 C -8.724,1.942 -9,3.33 -9,5.22 v 16.244 c 0,0.27 0.104,0.406 0.314,0.406 h 2.295 c 0.21,0 0.316,-0.136 0.316,-0.406 V 5.265 c 0,-1.08 0.127,-1.8 0.383,-2.16 0.254,-0.36 0.667,-0.54 1.237,-0.54 0.779,0 1.522,0.299 2.227,0.9 0.705,0.599 1.387,1.41 2.047,2.43 L 0.09,3.375 C -0.69,2.324 -1.53,1.455 -2.431,0.765 -3.33,0.074 -4.275,-0.27 -5.266,-0.27"
       style="fill:#ffffff;fill-opacity:1;fill-rule:nonzero;stroke:none"
       transform="matrix(1.3333333,0,0,-1.3333333,239.47787,68.208267)"
       clip-path="url(#clipPath57)" />
    <path
       id="path58"
       d="m 0,0 c -1.53,0 -2.625,0.464 -3.285,1.395 -0.66,0.929 -0.99,2.49 -0.99,4.679 V 19.349 H -6.21 c -0.24,0 -0.36,0.12 -0.36,0.36 v 2.025 c 0,0.27 0.12,0.405 0.36,0.405 h 2.025 l 0.36,5.49 c 0.029,0.24 0.15,0.36 0.36,0.36 h 1.845 c 0.18,0 0.27,-0.12 0.27,-0.36 v -5.49 H 2.7 c 0.239,0 0.36,-0.135 0.36,-0.405 v -2.025 c 0,-0.24 -0.121,-0.36 -0.36,-0.36 H -1.35 V 6.164 c 0,-1.23 0.15,-2.1 0.45,-2.609 0.299,-0.511 0.81,-0.766 1.53,-0.766 0.39,0 0.766,0.046 1.125,0.136 0.36,0.09 0.689,0.194 0.99,0.314 0.239,0.09 0.36,0.015 0.36,-0.224 V 0.944 C 3.105,0.675 3,0.51 2.79,0.449 2.399,0.329 1.965,0.225 1.485,0.135 1.005,0.045 0.51,0 0,0"
       style="fill:#ffffff;fill-opacity:1;fill-rule:nonzero;stroke:none"
       transform="matrix(1.3333333,0,0,-1.3333333,254.836,68.567733)"
       clip-path="url(#clipPath59)" />
    <path
       id="path60"
       d="m 0,0 c -0.181,0 -0.286,0.135 -0.315,0.405 -0.061,0.54 -0.121,1.222 -0.18,2.047 -0.061,0.825 -0.09,1.523 -0.09,2.093 L -0.766,4.77 v 11.339 c 0,1.23 -0.142,2.078 -0.426,2.543 -0.287,0.465 -0.864,0.698 -1.733,0.698 -0.841,0 -1.426,-0.233 -1.756,-0.698 -0.33,-0.465 -0.449,-1.223 -0.359,-2.273 0,-0.27 -0.12,-0.404 -0.36,-0.404 h -1.98 c -0.301,0 -0.466,0.179 -0.495,0.54 -0.15,1.769 0.202,3.15 1.058,4.139 0.854,0.991 2.167,1.486 3.937,1.486 1.829,0 3.127,-0.436 3.893,-1.306 C 1.777,19.964 2.16,18.419 2.16,16.2 V 5.4 C 2.16,4.2 2.175,3.18 2.205,2.34 2.234,1.5 2.265,0.87 2.295,0.45 2.324,0.149 2.25,0 2.069,0 Z m -4.815,-0.27 c -1.17,0 -2.078,0.51 -2.723,1.53 -0.646,1.019 -0.967,2.445 -0.967,4.275 0,2.04 0.449,3.682 1.35,4.928 0.9,1.244 2.369,1.971 4.41,2.181 l 2.34,0.271 V 10.53 L -2.431,10.26 C -3.48,10.14 -4.269,9.704 -4.793,8.955 -5.318,8.205 -5.58,7.14 -5.58,5.76 c 0,-0.99 0.149,-1.771 0.45,-2.34 0.299,-0.57 0.704,-0.855 1.215,-0.855 0.51,0 1.027,0.203 1.553,0.608 0.524,0.404 1.207,1.162 2.047,2.272 l 0.134,-2.61 C -1.08,1.725 -1.86,0.93 -2.521,0.45 -3.181,-0.029 -3.945,-0.27 -4.815,-0.27"
       style="fill:#ffffff;fill-opacity:1;fill-rule:nonzero;stroke:none"
       transform="matrix(1.3333333,0,0,-1.3333333,273.25653,68.208267)"
       clip-path="url(#clipPath61)" />
    <path
       id="path62"
       d="m 0,0 c -1.53,0 -2.625,0.464 -3.285,1.395 -0.66,0.929 -0.99,2.49 -0.99,4.679 V 19.349 H -6.21 c -0.24,0 -0.36,0.12 -0.36,0.36 v 2.025 c 0,0.27 0.12,0.405 0.36,0.405 h 2.025 l 0.36,5.49 c 0.029,0.24 0.15,0.36 0.36,0.36 h 1.845 c 0.18,0 0.27,-0.12 0.27,-0.36 v -5.49 H 2.7 c 0.239,0 0.36,-0.135 0.36,-0.405 v -2.025 c 0,-0.24 -0.121,-0.36 -0.36,-0.36 H -1.35 V 6.164 c 0,-1.23 0.15,-2.1 0.45,-2.609 0.299,-0.511 0.81,-0.766 1.53,-0.766 0.39,0 0.766,0.046 1.125,0.136 0.36,0.09 0.689,0.194 0.99,0.314 0.239,0.09 0.36,0.015 0.36,-0.224 V 0.944 C 3.105,0.675 3,0.51 2.79,0.449 2.399,0.329 1.965,0.225 1.485,0.135 1.005,0.045 0.51,0 0,0"
       style="fill:#ffffff;fill-opacity:1;fill-rule:nonzero;stroke:none"
       transform="matrix(1.3333333,0,0,-1.3333333,288.67573,68.567733)"
       clip-path="url(#clipPath63)" />
  </g>
  <g
     id="layer-MC4"
     inkscape:groupmode="layer"
     inkscape:label="Template"
     style="display:none">
    <path
       id="path64"
       d="M 0,0 C -0.21,0 -0.315,0.135 -0.315,0.405 V 26.64 H -5.04 c -0.24,0 -0.36,0.134 -0.36,0.404 v 2.025 c 0,0.27 0.12,0.406 0.36,0.406 H 7.335 c 0.21,0 0.315,-0.136 0.315,-0.406 V 27.044 C 7.65,26.774 7.545,26.64 7.335,26.64 H 2.61 V 0.405 C 2.61,0.135 2.489,0 2.25,0 Z"
       style="fill:#ffffff;fill-opacity:1;fill-rule:nonzero;stroke:none"
       transform="matrix(1.3333333,0,0,-1.3333333,127.75653,68.208267)"
       clip-path="url(#clipPath65)" />
    <path
       id="path66"
       d="M 0,0 H 5.58 V 2.025 C 5.58,3.555 5.362,4.658 4.928,5.333 4.492,6.008 3.78,6.345 2.79,6.345 1.83,6.345 1.125,6 0.675,5.31 0.226,4.62 0,3.525 0,2.025 Z m 2.971,-13.274 c -2.011,0 -3.496,0.63 -4.455,1.89 -0.961,1.259 -1.441,3.21 -1.441,5.849 V 1.98 c 0,2.49 0.48,4.305 1.441,5.445 0.959,1.14 2.384,1.71 4.274,1.71 1.86,0 3.277,-0.593 4.253,-1.778 C 8.018,6.172 8.505,4.41 8.505,2.07 v -4.454 c 0,-0.241 -0.106,-0.361 -0.315,-0.361 H 0 V -5.49 c 0,-1.74 0.232,-3 0.697,-3.779 0.465,-0.781 1.223,-1.17 2.274,-1.17 0.899,0 1.558,0.247 1.979,0.742 0.42,0.495 0.6,1.238 0.54,2.228 -0.06,0.3 0.03,0.45 0.27,0.45 h 2.16 c 0.21,0 0.315,-0.12 0.315,-0.36 0.06,-1.89 -0.368,-3.346 -1.282,-4.366 -0.916,-1.019 -2.243,-1.529 -3.982,-1.529"
       style="fill:#ffffff;fill-opacity:1;fill-rule:nonzero;stroke:none"
       transform="matrix(1.3333333,0,0,-1.3333333,141.7956,50.869067)"
       clip-path="url(#clipPath67)" />
    <path
       id="path68"
       d="M 0,0 C -0.21,0 -0.314,0.135 -0.314,0.405 V 16.47 c 0,1.259 -0.008,2.287 -0.023,3.082 -0.016,0.795 -0.053,1.402 -0.113,1.823 -0.03,0.329 0.06,0.495 0.27,0.495 h 2.071 c 0.149,0 0.239,-0.136 0.269,-0.406 0.06,-0.39 0.097,-0.764 0.112,-1.125 0.015,-0.36 0.038,-0.735 0.068,-1.125 0.78,0.93 1.553,1.65 2.318,2.161 0.765,0.509 1.612,0.765 2.542,0.765 0.81,0 1.5,-0.241 2.071,-0.721 0.569,-0.48 0.959,-1.2 1.169,-2.16 0.749,0.901 1.507,1.605 2.273,2.116 0.765,0.509 1.612,0.765 2.542,0.765 1.08,0 1.928,-0.421 2.543,-1.261 0.614,-0.84 0.923,-2.055 0.923,-3.645 V 0.405 C 18.721,0.135 18.615,0 18.405,0 H 16.11 C 15.9,0 15.795,0.135 15.795,0.405 V 16.83 c 0,0.869 -0.135,1.507 -0.404,1.912 -0.271,0.405 -0.691,0.608 -1.261,0.608 -0.54,0 -1.095,-0.219 -1.665,-0.653 -0.57,-0.435 -1.17,-1.057 -1.8,-1.867 V 0.405 C 10.665,0.135 10.56,0 10.351,0 H 8.056 C 7.845,0 7.74,0.135 7.74,0.405 V 16.83 c 0,0.869 -0.135,1.507 -0.405,1.912 -0.27,0.405 -0.69,0.608 -1.26,0.608 -0.54,0 -1.096,-0.219 -1.665,-0.653 C 3.84,18.262 3.24,17.64 2.61,16.83 V 0.405 C 2.61,0.135 2.505,0 2.295,0 Z"
       style="fill:#ffffff;fill-opacity:1;fill-rule:nonzero;stroke:none"
       transform="matrix(1.3333333,0,0,-1.3333333,158.41533,68.208267)"
       clip-path="url(#clipPath69)" />
    <path
       id="path70"
       d="M 0,0 C -0.751,0 -1.501,0.12 -2.25,0.359 -3.001,0.6 -3.661,0.884 -4.23,1.215 L -4.275,3.96 c 0.509,-0.271 1.057,-0.525 1.642,-0.766 0.585,-0.24 1.207,-0.359 1.867,-0.359 0.781,0 1.366,0.352 1.755,1.057 0.39,0.705 0.585,1.852 0.585,3.443 v 9.404 c 0,1.05 -0.142,1.792 -0.427,2.227 -0.286,0.435 -0.727,0.653 -1.328,0.653 -0.719,0 -1.432,-0.3 -2.136,-0.9 -0.706,-0.6 -1.404,-1.38 -2.093,-2.34 l -0.226,2.61 c 0.84,1.08 1.688,1.92 2.543,2.52 0.855,0.6 1.792,0.9 2.813,0.9 1.259,0 2.205,-0.428 2.835,-1.283 C 4.185,20.271 4.5,18.899 4.5,17.009 V 7.244 C 4.5,4.814 4.117,2.999 3.353,1.8 2.587,0.6 1.469,0 0,0 m -6.436,-8.056 c -0.21,0 -0.314,0.135 -0.314,0.406 v 24.749 c 0,1.08 -0.008,1.987 -0.022,2.723 -0.016,0.734 -0.053,1.357 -0.114,1.867 -0.03,0.3 0.061,0.45 0.271,0.45 h 1.934 c 0.241,0 0.375,-0.135 0.406,-0.405 0.059,-0.3 0.104,-0.728 0.134,-1.282 0.031,-0.556 0.061,-1.119 0.09,-1.688 l 0.226,-1.08 V -7.65 c 0,-0.271 -0.106,-0.406 -0.316,-0.406 z"
       style="fill:#ffffff;fill-opacity:1;fill-rule:nonzero;stroke:none"
       transform="matrix(1.3333333,0,0,-1.3333333,197.89587,68.567733)"
       clip-path="url(#clipPath71)" />
    <path
       id="path72"
       d="M 0,0 C -0.21,0 -0.314,0.135 -0.314,0.405 V 30.33 c 0,0.27 0.104,0.404 0.314,0.404 h 2.295 c 0.21,0 0.315,-0.134 0.315,-0.404 V 0.405 C 2.61,0.135 2.505,0 2.295,0 Z"
       style="fill:#ffffff;fill-opacity:1;fill-rule:nonzero;stroke:none"
       transform="matrix(1.3333333,0,0,-1.3333333,209.4752,68.208267)"
       clip-path="url(#clipPath73)" />
    <path
       id="path74"
       d="m 0,0 c -0.181,0 -0.286,0.135 -0.315,0.405 -0.061,0.54 -0.121,1.222 -0.18,2.047 -0.061,0.825 -0.09,1.523 -0.09,2.093 L -0.766,4.77 v 11.339 c 0,1.23 -0.142,2.078 -0.426,2.543 -0.287,0.465 -0.864,0.698 -1.733,0.698 -0.841,0 -1.426,-0.233 -1.756,-0.698 -0.33,-0.465 -0.449,-1.223 -0.359,-2.273 0,-0.27 -0.12,-0.404 -0.36,-0.404 h -1.98 c -0.301,0 -0.466,0.179 -0.495,0.54 -0.15,1.769 0.202,3.15 1.058,4.139 0.854,0.991 2.167,1.486 3.937,1.486 1.829,0 3.127,-0.436 3.893,-1.306 C 1.777,19.964 2.16,18.419 2.16,16.2 V 5.4 C 2.16,4.2 2.175,3.18 2.205,2.34 2.234,1.5 2.265,0.87 2.295,0.45 2.324,0.149 2.25,0 2.069,0 Z m -4.815,-0.27 c -1.17,0 -2.078,0.51 -2.723,1.53 -0.646,1.019 -0.967,2.445 -0.967,4.275 0,2.04 0.449,3.682 1.35,4.928 0.9,1.244 2.369,1.971 4.41,2.181 l 2.34,0.271 V 10.53 L -2.431,10.26 C -3.48,10.14 -4.269,9.704 -4.793,8.955 -5.318,8.205 -5.58,7.14 -5.58,5.76 c 0,-0.99 0.149,-1.771 0.45,-2.34 0.299,-0.57 0.704,-0.855 1.215,-0.855 0.51,0 1.027,0.203 1.553,0.608 0.524,0.404 1.207,1.162 2.047,2.272 l 0.134,-2.61 C -1.08,1.725 -1.86,0.93 -2.521,0.45 -3.181,-0.029 -3.945,-0.27 -4.815,-0.27"
       style="fill:#ffffff;fill-opacity:1;fill-rule:nonzero;stroke:none"
       transform="matrix(1.3333333,0,0,-1.3333333,229.0352,68.208267)"
       clip-path="url(#clipPath75)" />
    <path
       id="path76"
       d="m 0,0 c -1.53,0 -2.625,0.464 -3.285,1.395 -0.66,0.929 -0.99,2.49 -0.99,4.679 V 19.349 H -6.21 c -0.24,0 -0.36,0.12 -0.36,0.36 v 2.025 c 0,0.27 0.12,0.405 0.36,0.405 h 2.025 l 0.36,5.49 c 0.029,0.24 0.15,0.36 0.36,0.36 h 1.845 c 0.18,0 0.27,-0.12 0.27,-0.36 v -5.49 H 2.7 c 0.239,0 0.36,-0.135 0.36,-0.405 v -2.025 c 0,-0.24 -0.121,-0.36 -0.36,-0.36 H -1.35 V 6.164 c 0,-1.23 0.15,-2.1 0.45,-2.609 0.299,-0.511 0.81,-0.766 1.53,-0.766 0.39,0 0.766,0.046 1.125,0.136 0.36,0.09 0.689,0.194 0.99,0.314 0.239,0.09 0.36,0.015 0.36,-0.224 V 0.944 C 3.105,0.675 3,0.51 2.79,0.449 2.399,0.329 1.965,0.225 1.485,0.135 1.005,0.045 0.51,0 0,0"
       style="fill:#ffffff;fill-opacity:1;fill-rule:nonzero;stroke:none"
       transform="matrix(1.3333333,0,0,-1.3333333,244.4544,68.567733)"
       clip-path="url(#clipPath77)" />
    <path
       id="path78"
       d="M 0,0 H 5.58 V 2.025 C 5.58,3.555 5.362,4.658 4.928,5.333 4.492,6.008 3.78,6.345 2.79,6.345 1.83,6.345 1.125,6 0.675,5.31 0.226,4.62 0,3.525 0,2.025 Z m 2.971,-13.274 c -2.011,0 -3.496,0.63 -4.455,1.89 -0.961,1.259 -1.441,3.21 -1.441,5.849 V 1.98 c 0,2.49 0.48,4.305 1.441,5.445 0.959,1.14 2.384,1.71 4.274,1.71 1.86,0 3.277,-0.593 4.253,-1.778 C 8.018,6.172 8.505,4.41 8.505,2.07 v -4.454 c 0,-0.241 -0.106,-0.361 -0.315,-0.361 H 0 V -5.49 c 0,-1.74 0.232,-3 0.697,-3.779 0.465,-0.781 1.223,-1.17 2.274,-1.17 0.899,0 1.558,0.247 1.979,0.742 0.42,0.495 0.6,1.238 0.54,2.228 -0.06,0.3 0.03,0.45 0.27,0.45 h 2.16 c 0.21,0 0.315,-0.12 0.315,-0.36 0.06,-1.89 -0.368,-3.346 -1.282,-4.366 -0.916,-1.019 -2.243,-1.529 -3.982,-1.529"
       style="fill:#ffffff;fill-opacity:1;fill-rule:nonzero;stroke:none"
       transform="matrix(1.3333333,0,0,-1.3333333,255.67453,50.869067)"
       clip-path="url(#clipPath79)" />
  </g>
  <g
     inkscape:groupmode="layer"
     id="layer1"
     inkscape:label="Channel Maps"
     style="display:inline">
    <path
       style="font-size:60px;font-family:'Sofia Sans Extra Condensed';-inkscape-font-specification:'Sofia Sans Extra Condensed, Normal';display:inline;fill:#ffffff;stroke-width:1.33333"
       d="m 131.47706,68.568801 q -4.56,0 -6.96,-2.94 -2.4,-2.94 -2.4,-8.88 v -16.38 q 0,-5.94 2.4,-8.88 2.4,-2.94 6.96,-2.94 3.3,0 5.46,1.62 2.16,1.56 3.06,4.5 0.9,2.88 0.42,6.9 -0.12,0.48 -0.42,0.48 h -3.06 q -0.54,0 -0.42,-0.6 0.36,-4.5 -0.9,-6.78 -1.2,-2.34 -4.14,-2.34 -2.64,0 -4.08,1.98 -1.38,1.98 -1.38,6.36 v 15.78 q 0,4.32 1.38,6.36 1.44,1.98 4.08,1.98 3.12,0 4.26,-2.46 1.2,-2.46 0.9,-6.66 -0.12,-0.6 0.42,-0.6 h 2.82 q 0.54,0 0.6,0.6 0.36,6.18 -1.92,9.54 -2.28,3.36 -7.08,3.36 z m 26.16002,-0.36 q -0.42,0 -0.42,-0.54 v -21.42 q 0,-1.98 -0.6,-2.88 -0.6,-0.96 -1.92,-0.96 -1.2,0 -2.58,1.02 -1.32,0.96 -2.82,2.88 l -0.3,-3.24 q 1.74,-2.16 3.42,-3.24 1.74,-1.14 3.72,-1.14 2.46,0 3.72,1.8 1.26,1.8 1.26,5.52 v 21.66 q 0,0.54 -0.42,0.54 z m -11.4,0 q -0.42,0 -0.42,-0.54 v -39.9 q 0,-0.54 0.42,-0.54 h 3.06 q 0.42,0 0.42,0.54 v 39.9 q 0,0.54 -0.42,0.54 z m 30.96,0 q -0.36,0 -0.42,-0.54 -0.12,-1.08 -0.24,-2.7 -0.12,-1.68 -0.12,-2.82 l -0.24,-0.3 v -15.12 q 0,-2.46 -0.6,-3.36 -0.54,-0.96 -2.28,-0.96 -1.68,0 -2.34,0.96 -0.66,0.9 -0.48,3 0,0.54 -0.48,0.54 h -2.64 q -0.6,0 -0.66,-0.72 -0.3,-3.54 1.38,-5.52 1.74,-1.98 5.28,-1.98 3.66,0 5.16,1.74 1.56,1.74 1.56,6.18 v 14.4 q 0,2.4 0.06,4.08 0.06,1.68 0.12,2.52 0.06,0.6 -0.3,0.6 z m -6.42,0.36 q -2.34,0 -3.66,-2.04 -1.26,-2.04 -1.26,-5.7 0,-4.08 1.8,-6.54 1.8,-2.52 5.88,-2.94 l 3.12,-0.36 v 3.18 l -2.7,0.36 q -2.1,0.24 -3.18,1.74 -1.02,1.5 -1.02,4.26 0,1.98 0.6,3.12 0.6,1.14 1.62,1.14 1.02,0 2.04,-0.78 1.08,-0.84 2.76,-3.06 l 0.18,3.48 q -1.8,2.22 -3.12,3.18 -1.32,0.96 -3.06,0.96 z m 26.64,-0.36 q -0.42,0 -0.42,-0.54 v -21.42 q 0,-1.98 -0.6,-2.88 -0.6,-0.96 -1.92,-0.96 -1.2,0 -2.58,1.02 -1.32,0.96 -2.82,2.88 l -0.3,-3.24 q 1.74,-2.16 3.42,-3.24 1.74,-1.14 3.72,-1.14 2.46,0 3.72,1.8 1.26,1.8 1.26,5.52 v 21.66 q 0,0.54 -0.42,0.54 z m -11.4,0 q -0.42,0 -0.42,-0.54 v -21.42 q 0,-2.52 -0.06,-4.08 0,-1.62 -0.12,-2.46 -0.06,-0.66 0.36,-0.66 h 2.58 q 0.48,0 0.54,0.54 0.18,1.14 0.24,2.88 0.12,1.74 0.12,2.64 l 0.24,0.36 v 22.2 q 0,0.54 -0.42,0.54 z m 32.22001,0 q -0.42,0 -0.42,-0.54 v -21.42 q 0,-1.98 -0.6,-2.88 -0.6,-0.96 -1.92,-0.96 -1.2,0 -2.58,1.02 -1.32,0.96 -2.82,2.88 l -0.3,-3.24 q 1.74,-2.16 3.42,-3.24 1.74,-1.14 3.72,-1.14 2.46,0 3.72,1.8 1.26,1.8 1.26,5.52 v 21.66 q 0,0.54 -0.42,0.54 z m -11.4,0 q -0.42,0 -0.42,-0.54 v -21.42 q 0,-2.52 -0.06,-4.08 0,-1.62 -0.12,-2.46 -0.06,-0.66 0.36,-0.66 h 2.58 q 0.48,0 0.54,0.54 0.18,1.14 0.24,2.88 0.12,1.74 0.12,2.64 l 0.24,0.36 v 22.2 q 0,0.54 -0.42,0.54 z m 27.78001,0.36 q -4.02,0 -5.94,-2.52 -1.92,-2.52 -1.92,-7.8 v -10.02 q 0,-4.98 1.92,-7.26 1.92,-2.28 5.7,-2.28 3.72,0 5.64,2.4 1.98,2.34 1.98,7.02 v 5.94 q 0,0.48 -0.42,0.48 h -10.92 v 3.66 q 0,3.48 0.9,5.04 0.96,1.56 3.06,1.56 1.8,0 2.64,-0.96 0.84,-1.02 0.72,-3 -0.12,-0.6 0.36,-0.6 h 2.88 q 0.42,0 0.42,0.48 0.12,3.78 -1.74,5.82 -1.8,2.04 -5.28,2.04 z m -3.96,-17.7 h 7.44 v -2.7 q 0,-3.06 -0.9,-4.38 -0.84,-1.38 -2.82,-1.38 -1.92,0 -2.82,1.38 -0.9,1.38 -0.9,4.38 z m 16.61998,17.34 q -0.42,0 -0.42,-0.54 v -39.9 q 0,-0.54 0.42,-0.54 h 3.06 q 0.42,0 0.42,0.54 v 39.9 q 0,0.54 -0.42,0.54 z m 16.73996,0 q -0.36,0 -0.36,-0.54 l 0.48,-38.22 q 0,-0.54 0.48,-0.54 h 4.68 q 0.48,0 0.54,0.42 l 5.7,23.46 5.76,-23.46 q 0.06,-0.42 0.54,-0.42 h 4.68 q 0.42,0 0.42,0.54 l 0.54,38.22 q 0,0.54 -0.42,0.54 h -3 q -0.48,0 -0.48,-0.54 l -0.24,-25.2 q 0,-1.74 0,-3.84 0,-2.1 0.06,-4.02 h -0.06 q -0.36,1.86 -0.84,3.72 -0.48,1.86 -0.96,3.66 l -5.34,20.28 q -0.06,0.42 -0.54,0.42 h -0.24 q -0.42,0 -0.48,-0.42 l -5.46,-20.34 q -0.48,-1.8 -0.9,-3.6 -0.42,-1.86 -0.78,-3.72 h -0.12 q 0.12,1.92 0.12,4.02 0,2.04 0,3.78 l -0.3,25.26 q 0,0.54 -0.42,0.54 z m 39.42004,0 q -0.36,0 -0.42,-0.54 -0.12,-1.08 -0.24,-2.7 -0.12,-1.68 -0.12,-2.82 l -0.24,-0.3 v -15.12 q 0,-2.46 -0.6,-3.36 -0.54,-0.96 -2.28,-0.96 -1.68,0 -2.34,0.96 -0.66,0.9 -0.48,3 0,0.54 -0.48,0.54 h -2.64 q -0.6,0 -0.66,-0.72 -0.3,-3.54 1.38,-5.52 1.74,-1.98 5.28,-1.98 3.66,0 5.16,1.74 1.56,1.74 1.56,6.18 v 14.4 q 0,2.4 0.06,4.08 0.06,1.68 0.12,2.52 0.06,0.6 -0.3,0.6 z m -6.42,0.36 q -2.34,0 -3.66,-2.04 -1.26,-2.04 -1.26,-5.7 0,-4.08 1.8,-6.54 1.8,-2.52 5.88,-2.94 l 3.12,-0.36 v 3.18 l -2.7,0.36 q -2.1,0.24 -3.18,1.74 -1.02,1.5 -1.02,4.26 0,1.98 0.6,3.12 0.6,1.14 1.62,1.14 1.02,0 2.04,-0.78 1.08,-0.84 2.76,-3.06 l 0.18,3.48 q -1.8,2.22 -3.12,3.18 -1.32,0.96 -3.06,0.96 z m 23.82001,0 q -1.5,0 -3,-0.48 -1.5,-0.48 -2.64,-1.14 l -0.06,-3.66 q 1.02,0.54 2.16,1.02 1.2,0.48 2.52,0.48 1.56,0 2.34,-1.38 0.78,-1.44 0.78,-4.62 v -12.54 q 0,-2.1 -0.6,-2.94 -0.54,-0.9 -1.74,-0.9 -1.44,0 -2.88,1.2 -1.38,1.2 -2.76,3.12 l -0.3,-3.48 q 1.68,-2.16 3.36,-3.36 1.74,-1.2 3.78,-1.2 2.52,0 3.78,1.74 1.26,1.68 1.26,5.46 v 13.02 q 0,4.86 -1.56,7.26 -1.5,2.4 -4.44,2.4 z m -8.58,10.74 q -0.42,0 -0.42,-0.54 v -33 q 0,-2.16 -0.06,-3.6 0,-1.5 -0.12,-2.52 -0.06,-0.6 0.36,-0.6 h 2.58 q 0.48,0 0.54,0.54 0.12,0.6 0.18,1.74 0.06,1.08 0.12,2.22 l 0.3,1.44 v 33.78 q 0,0.54 -0.42,0.54 z m 25.74005,-10.74 q -3.66,0 -5.34,-2.28 -1.68,-2.28 -1.38,-6.66 0,-0.48 0.42,-0.48 h 3.06 q 0.36,0 0.36,0.42 -0.06,2.88 0.54,4.08 0.66,1.2 2.46,1.2 3.06,0 3.06,-3.96 0,-1.56 -0.54,-2.58 -0.48,-1.08 -1.68,-2.04 l -3.96,-3.12 q -1.86,-1.44 -2.7,-3.24 -0.84,-1.86 -0.84,-4.44 0,-3.24 1.68,-4.98 1.74,-1.8 4.98,-1.8 3.36,0 5.04,2.04 1.74,2.04 1.38,5.58 0,0.48 -0.42,0.48 h -3 q -0.12,0 -0.3,-0.06 -0.12,-0.06 -0.06,-0.54 0.12,-1.8 -0.54,-2.82 -0.66,-1.02 -2.22,-1.02 -2.76,0 -2.76,3.12 0,1.5 0.54,2.52 0.6,1.02 1.74,2.04 l 3.9,3.12 q 2.04,1.68 2.76,3.3 0.78,1.62 0.78,4.26 0,3.84 -1.8,5.88 -1.74,1.98 -5.16,1.98 z"
       id="text79-1"
       aria-label="Channel Maps" />
  </g>
  <g
     id="layer-MC5"
     inkscape:groupmode="layer"
     inkscape:label="Copy Me"
     style="display:none">
    <text
       id="text79"
       xml:space="preserve"
       transform="matrix(1.3333333,0,0,1.3333333,119.53707,68.2088)"><tspan
         style="font-variant:normal;font-weight:normal;font-stretch:extra-condensed;font-size:45px;font-family:'Sofia Sans Extra Condensed';writing-mode:lr-tb;fill:#ffffff;fill-opacity:1;fill-rule:nonzero;stroke:none"
         x="0 17.325001 32.535 47.384998 61.650002 67.275002 89.099998"
         y="0"
         sodipodi:role="line"
         id="tspan79">Copy Me</tspan></text>
  </g>
  <g
     id="layer-MC6"
     inkscape:groupmode="layer"
     inkscape:label="Twister3"
     style="display:none">
    <path
       id="path80"
       d="M 0,0 C -0.21,0 -0.315,0.135 -0.315,0.405 V 26.64 H -5.04 c -0.24,0 -0.36,0.134 -0.36,0.404 v 2.025 c 0,0.27 0.12,0.406 0.36,0.406 H 7.335 c 0.21,0 0.315,-0.136 0.315,-0.406 V 27.044 C 7.65,26.774 7.545,26.64 7.335,26.64 H 2.61 V 0.405 C 2.61,0.135 2.489,0 2.25,0 Z"
       style="fill:#ffffff;fill-opacity:1;fill-rule:nonzero;stroke:none"
       transform="matrix(1.3333333,0,0,-1.3333333,127.75653,68.208267)"
       clip-path="url(#clipPath81)" />
    <path
       id="path82"
       d="m 0,0 c -0.21,0 -0.345,0.119 -0.404,0.36 l -3.87,21.059 c -0.031,0.3 0.045,0.451 0.224,0.451 h 2.385 c 0.21,0 0.33,-0.136 0.36,-0.406 L 0.766,9.045 C 0.945,8.085 1.095,7.095 1.215,6.075 1.335,5.055 1.44,4.064 1.53,3.105 h 0.135 c 0.15,0.959 0.3,1.935 0.45,2.925 0.15,0.99 0.3,1.964 0.45,2.925 L 3.96,16.56 3.195,21.015 c -0.03,0.299 0.045,0.449 0.225,0.449 H 5.715 C 5.896,21.464 6,21.359 6.03,21.149 L 7.965,9 C 8.115,8.01 8.242,7.02 8.348,6.03 8.452,5.04 8.55,4.064 8.641,3.105 H 8.775 C 8.925,4.095 9.06,5.107 9.181,6.143 9.3,7.178 9.435,8.175 9.585,9.135 l 2.07,12.329 c 0.06,0.27 0.164,0.406 0.316,0.406 h 2.384 c 0.209,0 0.3,-0.151 0.27,-0.451 L 10.71,0.36 C 10.68,0.119 10.545,0 10.306,0 H 7.29 C 7.08,0 6.945,0.09 6.886,0.27 L 5.985,5.67 C 5.835,6.6 5.7,7.567 5.58,8.572 5.46,9.577 5.355,10.739 5.266,12.06 H 5.085 C 4.965,10.739 4.838,9.577 4.703,8.572 4.567,7.567 4.425,6.585 4.275,5.625 L 3.465,0.315 C 3.435,0.104 3.314,0 3.105,0 Z"
       style="fill:#ffffff;fill-opacity:1;fill-rule:nonzero;stroke:none"
       transform="matrix(1.3333333,0,0,-1.3333333,143.65627,68.208267)"
       clip-path="url(#clipPath83)" />
    <path
       id="path84"
       d="m 0,0 c -0.21,0 -0.314,0.135 -0.314,0.405 v 21.059 c 0,0.27 0.104,0.406 0.314,0.406 h 2.295 c 0.21,0 0.315,-0.136 0.315,-0.406 V 0.405 C 2.61,0.135 2.505,0 2.295,0 Z m 1.17,25.875 c -0.66,0 -1.155,0.164 -1.484,0.495 -0.332,0.329 -0.496,0.81 -0.496,1.44 v 0.404 c 0,0.631 0.164,1.118 0.496,1.463 0.329,0.344 0.824,0.517 1.484,0.517 0.66,0 1.147,-0.173 1.463,-0.517 0.314,-0.345 0.472,-0.832 0.472,-1.463 V 27.81 C 3.105,27.18 2.947,26.699 2.633,26.37 2.317,26.039 1.83,25.875 1.17,25.875"
       style="fill:#ffffff;fill-opacity:1;fill-rule:nonzero;stroke:none"
       transform="matrix(1.3333333,0,0,-1.3333333,167.59507,68.208267)"
       clip-path="url(#clipPath85)" />
    <path
       id="path86"
       d="m 0,0 c -1.83,0 -3.166,0.569 -4.005,1.71 -0.841,1.14 -1.185,2.805 -1.035,4.994 0,0.24 0.104,0.36 0.314,0.36 h 2.295 c 0.181,0 0.271,-0.105 0.271,-0.314 -0.03,-1.44 0.112,-2.461 0.428,-3.061 0.314,-0.6 0.921,-0.9 1.822,-0.9 1.53,0 2.295,0.99 2.295,2.971 0,0.779 -0.128,1.431 -0.383,1.957 C 1.747,8.241 1.319,8.744 0.72,9.225 l -2.97,2.339 c -0.931,0.72 -1.605,1.537 -2.025,2.452 -0.42,0.915 -0.63,2.018 -0.63,3.308 0,1.62 0.427,2.872 1.282,3.758 0.855,0.884 2.093,1.327 3.713,1.327 1.68,0 2.947,-0.511 3.803,-1.53 0.854,-1.02 1.192,-2.415 1.011,-4.185 0,-0.24 -0.105,-0.36 -0.314,-0.36 H 2.34 c -0.061,0 -0.128,0.015 -0.202,0.045 -0.075,0.03 -0.099,0.164 -0.069,0.405 0.061,0.9 -0.075,1.605 -0.404,2.115 -0.331,0.51 -0.886,0.765 -1.665,0.765 -1.381,0 -2.07,-0.78 -2.07,-2.34 0,-0.75 0.142,-1.38 0.427,-1.89 0.285,-0.511 0.712,-1.02 1.283,-1.53 l 2.924,-2.34 C 3.584,10.725 4.282,9.899 4.657,9.09 5.032,8.279 5.22,7.214 5.22,5.895 5.22,3.975 4.776,2.512 3.893,1.507 3.007,0.502 1.71,0 0,0"
       style="fill:#ffffff;fill-opacity:1;fill-rule:nonzero;stroke:none"
       transform="matrix(1.3333333,0,0,-1.3333333,182.65627,68.567733)"
       clip-path="url(#clipPath87)" />
    <path
       id="path88"
       d="m 0,0 c -1.53,0 -2.625,0.464 -3.285,1.395 -0.66,0.929 -0.99,2.49 -0.99,4.679 V 19.349 H -6.21 c -0.24,0 -0.36,0.12 -0.36,0.36 v 2.025 c 0,0.27 0.12,0.405 0.36,0.405 h 2.025 l 0.36,5.49 c 0.029,0.24 0.15,0.36 0.36,0.36 h 1.845 c 0.18,0 0.27,-0.12 0.27,-0.36 v -5.49 H 2.7 c 0.239,0 0.36,-0.135 0.36,-0.405 v -2.025 c 0,-0.24 -0.121,-0.36 -0.36,-0.36 H -1.35 V 6.164 c 0,-1.23 0.15,-2.1 0.45,-2.609 0.299,-0.511 0.81,-0.766 1.53,-0.766 0.39,0 0.766,0.046 1.125,0.136 0.36,0.09 0.689,0.194 0.99,0.314 0.239,0.09 0.36,0.015 0.36,-0.224 V 0.944 C 3.105,0.675 3,0.51 2.79,0.449 2.399,0.329 1.965,0.225 1.485,0.135 1.005,0.045 0.51,0 0,0"
       style="fill:#ffffff;fill-opacity:1;fill-rule:nonzero;stroke:none"
       transform="matrix(1.3333333,0,0,-1.3333333,201.19533,68.567733)"
       clip-path="url(#clipPath89)" />
    <path
       id="path90"
       d="M 0,0 H 5.58 V 2.025 C 5.58,3.555 5.362,4.658 4.928,5.333 4.492,6.008 3.78,6.345 2.79,6.345 1.83,6.345 1.125,6 0.675,5.31 0.226,4.62 0,3.525 0,2.025 Z m 2.971,-13.274 c -2.011,0 -3.496,0.63 -4.455,1.89 -0.961,1.259 -1.441,3.21 -1.441,5.849 V 1.98 c 0,2.49 0.48,4.305 1.441,5.445 0.959,1.14 2.384,1.71 4.274,1.71 1.86,0 3.277,-0.593 4.253,-1.778 C 8.018,6.172 8.505,4.41 8.505,2.07 v -4.454 c 0,-0.241 -0.106,-0.361 -0.315,-0.361 H 0 V -5.49 c 0,-1.74 0.232,-3 0.697,-3.779 0.465,-0.781 1.223,-1.17 2.274,-1.17 0.899,0 1.558,0.247 1.979,0.742 0.42,0.495 0.6,1.238 0.54,2.228 -0.06,0.3 0.03,0.45 0.27,0.45 h 2.16 c 0.21,0 0.315,-0.12 0.315,-0.36 0.06,-1.89 -0.368,-3.346 -1.282,-4.366 -0.916,-1.019 -2.243,-1.529 -3.982,-1.529"
       style="fill:#ffffff;fill-opacity:1;fill-rule:nonzero;stroke:none"
       transform="matrix(1.3333333,0,0,-1.3333333,212.41533,50.869067)"
       clip-path="url(#clipPath91)" />
    <path
       id="path92"
       d="M 0,0 -0.18,2.835 C 0.181,3.405 0.593,3.953 1.058,4.478 1.522,5.002 2.032,5.437 2.588,5.783 3.143,6.127 3.735,6.3 4.365,6.3 4.636,6.3 4.86,6.285 5.04,6.255 5.16,6.225 5.243,6.165 5.288,6.075 5.333,5.985 5.355,5.865 5.355,5.715 5.355,5.205 5.348,4.725 5.333,4.275 5.317,3.825 5.28,3.345 5.221,2.835 5.19,2.625 5.085,2.535 4.905,2.565 4.755,2.625 4.598,2.662 4.433,2.678 4.268,2.692 4.08,2.7 3.87,2.7 3.24,2.7 2.565,2.459 1.846,1.98 1.125,1.5 0.51,0.84 0,0 m -2.34,-15.839 c -0.21,0 -0.314,0.134 -0.314,0.405 V 0.63 c 0,1.26 -0.008,2.287 -0.023,3.083 -0.015,0.794 -0.052,1.402 -0.113,1.822 -0.03,0.33 0.061,0.495 0.27,0.495 h 2.071 C -0.3,6.03 -0.21,5.895 -0.18,5.625 -0.12,5.025 -0.061,4.298 0,3.443 0.061,2.588 0.091,1.935 0.091,1.485 l 0.18,-0.27 v -16.649 c 0,-0.271 -0.106,-0.405 -0.316,-0.405 z"
       style="fill:#ffffff;fill-opacity:1;fill-rule:nonzero;stroke:none"
       transform="matrix(1.3333333,0,0,-1.3333333,232.15493,47.0892)"
       clip-path="url(#clipPath93)" />
    <path
       id="path94"
       d="m 0,0 c -2.07,0 -3.54,0.682 -4.41,2.047 -0.87,1.365 -1.305,3.202 -1.305,5.513 0,0.269 0.135,0.405 0.404,0.405 h 2.026 c 0.269,0 0.405,-0.136 0.405,-0.405 0,-1.561 0.225,-2.739 0.675,-3.533 0.45,-0.796 1.244,-1.192 2.385,-1.192 1.08,0 1.897,0.396 2.452,1.192 0.556,0.794 0.833,2.017 0.833,3.667 V 9.09 c 0,1.59 -0.271,2.812 -0.81,3.666 -0.54,0.856 -1.56,1.283 -3.06,1.283 h -1.44 c -0.27,0 -0.405,0.12 -0.405,0.36 v 1.98 c 0,0.27 0.135,0.405 0.405,0.405 h 1.485 c 1.08,0 1.927,0.442 2.543,1.327 0.614,0.885 0.921,2.153 0.921,3.803 v 1.305 c 0,1.469 -0.247,2.497 -0.742,3.083 -0.495,0.585 -1.222,0.877 -2.182,0.877 -1.111,0 -1.898,-0.39 -2.363,-1.17 -0.465,-0.78 -0.682,-1.95 -0.652,-3.51 0,-0.27 -0.135,-0.405 -0.405,-0.405 h -2.026 c -0.269,0 -0.404,0.135 -0.404,0.405 0,2.49 0.495,4.365 1.484,5.625 0.991,1.26 2.491,1.89 4.5,1.89 1.891,0 3.315,-0.57 4.276,-1.71 0.96,-1.14 1.44,-2.97 1.44,-5.49 0,-1.98 -0.278,-3.548 -0.833,-4.703 C 4.642,16.957 3.93,16.139 3.06,15.659 v -0.09 c 1.049,-0.48 1.875,-1.276 2.475,-2.385 0.6,-1.11 0.9,-2.73 0.9,-4.86 C 6.435,5.534 5.872,3.449 4.747,2.069 3.622,0.689 2.04,0 0,0"
       style="fill:#ffffff;fill-opacity:1;fill-rule:nonzero;stroke:none"
       transform="matrix(1.3333333,0,0,-1.3333333,249.974,68.567733)"
       clip-path="url(#clipPath95)" />
  </g>
  <g
     id="layer-MC7"
     inkscape:groupmode="layer"
     inkscape:label="GUI"
     style="display:none">
    <path
       id="path96"
       d="m 0,0 c -2.16,0 -3.751,0.712 -4.771,2.137 -1.02,1.425 -1.53,3.578 -1.53,6.458 v 12.644 c 0,2.85 0.601,5.025 1.801,6.525 1.199,1.5 2.925,2.25 5.175,2.25 2.369,0 4.154,-0.826 5.354,-2.475 1.2,-1.65 1.68,-3.931 1.441,-6.84 0,-0.241 -0.106,-0.36 -0.316,-0.36 h -2.34 c -0.24,0 -0.33,0.119 -0.269,0.36 0.209,2.04 -0.03,3.63 -0.721,4.77 -0.69,1.14 -1.71,1.71 -3.059,1.71 -1.38,0 -2.415,-0.495 -3.106,-1.485 -0.69,-0.99 -1.034,-2.52 -1.034,-4.59 V 8.819 c 0,-2.13 0.299,-3.66 0.899,-4.59 0.6,-0.93 1.605,-1.394 3.016,-1.394 1.409,0 2.475,0.569 3.194,1.71 0.721,1.14 1.08,2.894 1.08,5.265 v 2.519 H 1.08 c -0.211,0 -0.315,0.135 -0.315,0.405 v 1.98 c 0,0.27 0.104,0.405 0.315,0.405 h 6.255 c 0.209,0 0.314,-0.135 0.314,-0.405 V 6.029 C 7.649,4.709 7.664,3.667 7.694,2.902 7.725,2.137 7.784,1.409 7.875,0.72 7.904,0.419 7.814,0.27 7.604,0.27 H 5.76 C 5.52,0.27 5.399,0.374 5.399,0.585 5.339,0.974 5.294,1.424 5.265,1.935 5.234,2.444 5.204,3.089 5.175,3.869 H 5.13 C 4.739,2.669 4.117,1.725 3.262,1.034 2.407,0.344 1.319,0 0,0"
       style="fill:#ffffff;fill-opacity:1;fill-rule:nonzero;stroke:none"
       transform="matrix(1.3333333,0,0,-1.3333333,130.51693,68.567733)"
       clip-path="url(#clipPath97)" />
    <path
       id="path98"
       d="m 0,0 c -2.37,0 -4.103,0.765 -5.197,2.295 -1.096,1.529 -1.643,3.84 -1.643,6.93 v 20.159 c 0,0.24 0.105,0.36 0.315,0.36 h 2.295 c 0.209,0 0.315,-0.12 0.315,-0.36 V 9.27 c 0,-2.221 0.308,-3.848 0.923,-4.883 C -2.378,3.352 -1.38,2.835 0,2.835 c 1.41,0 2.422,0.51 3.037,1.529 C 3.652,5.384 3.96,7.02 3.96,9.27 v 20.114 c 0,0.24 0.104,0.36 0.315,0.36 H 6.57 c 0.209,0 0.315,-0.12 0.315,-0.36 V 9.225 C 6.885,6.135 6.314,3.824 5.175,2.295 4.034,0.765 2.31,0 0,0"
       style="fill:#ffffff;fill-opacity:1;fill-rule:nonzero;stroke:none"
       transform="matrix(1.3333333,0,0,-1.3333333,155.89587,68.567733)"
       clip-path="url(#clipPath99)" />
    <path
       id="path100"
       d="m 0,0 c -0.211,0 -0.315,0.135 -0.315,0.405 v 28.664 c 0,0.27 0.104,0.406 0.315,0.406 h 2.295 c 0.209,0 0.314,-0.136 0.314,-0.406 V 0.405 C 2.609,0.135 2.504,0 2.295,0 Z"
       style="fill:#ffffff;fill-opacity:1;fill-rule:nonzero;stroke:none"
       transform="matrix(1.3333333,0,0,-1.3333333,171.4948,68.208267)"
       clip-path="url(#clipPath101)" />
  </g>
  <g
     id="layer-MC8"
     inkscape:groupmode="layer"
     inkscape:label="Circle">
    <path
       id="path102"
       d="m 0,0 c 18.667,0 33.8,-15.133 33.8,-33.8 0,-18.667 -15.133,-33.8 -33.8,-33.8 -18.667,0 -33.8,15.133 -33.8,33.8 C -33.8,-15.133 -18.667,0 0,0"
       style="fill:#ffffff;fill-opacity:1;fill-rule:nonzero;stroke:none"
       transform="matrix(1.3333333,0,0,-1.3333333,50,4.9333333)"
       clip-path="url(#clipPath103)" />
  </g>
  <g
     id="layer-MC9"
     inkscape:groupmode="layer"
     inkscape:label="Logo">
    <g
       id="g105"
       clip-path="url(#clipPath106)">
      <path
         d="M 0,0 8.3,-49.7"
         style="fill:none;stroke:#2fb6df;stroke-width:3.59;stroke-linecap:round;stroke-linejoin:miter;stroke-miterlimit:10;stroke-dasharray:none;stroke-opacity:1"
         transform="matrix(1.3333333,0,0,-1.3333333,64.4,12.666667)"
         clip-path="url(#clipPath104)"
         id="path105" />
    </g>
    <g
       id="g108"
       clip-path="url(#clipPath109)">
      <path
         d="M 0,0 28.9,-38.7"
         style="fill:none;stroke:#2fb6df;stroke-width:3.59;stroke-linecap:round;stroke-linejoin:miter;stroke-miterlimit:10;stroke-dasharray:none;stroke-opacity:1"
         transform="matrix(1.3333333,0,0,-1.3333333,36.933333,27.333333)"
         clip-path="url(#clipPath107)"
         id="path108" />
    </g>
    <g
       id="g111"
       clip-path="url(#clipPath112)">
      <path
         d="M 0,0 19.1,19.5"
         style="fill:none;stroke:#d6aacd;stroke-width:3.59;stroke-linecap:round;stroke-linejoin:miter;stroke-miterlimit:10;stroke-dasharray:none;stroke-opacity:1"
         transform="matrix(1.3333333,0,0,-1.3333333,11.466667,53.333333)"
         clip-path="url(#clipPath110)"
         id="path111" />
    </g>
    <g
       id="g114"
       clip-path="url(#clipPath115)">
      <path
         d="M 0,0 48,-19.2"
         style="fill:none;stroke:#b5b5b6;stroke-width:3.59;stroke-linecap:round;stroke-linejoin:miter;stroke-miterlimit:10;stroke-dasharray:none;stroke-opacity:1"
         transform="matrix(1.3333333,0,0,-1.3333333,11.466667,53.333333)"
         clip-path="url(#clipPath113)"
         id="path114" />
    </g>
    <g
       id="g117"
       clip-path="url(#clipPath118)">
      <path
         d="M 0,0 5.3,14.8"
         style="fill:none;stroke:#2fb6df;stroke-width:3.59;stroke-linecap:round;stroke-linejoin:miter;stroke-miterlimit:10;stroke-dasharray:none;stroke-opacity:1"
         transform="matrix(1.3333333,0,0,-1.3333333,75.466667,78.933333)"
         clip-path="url(#clipPath116)"
         id="path117" />
    </g>
    <g
       id="g120"
       clip-path="url(#clipPath121)">
      <path
         d="M 0,0 34.2,-23.9"
         style="fill:none;stroke:#ea6a3f;stroke-width:3.59;stroke-linecap:round;stroke-linejoin:miter;stroke-miterlimit:10;stroke-dasharray:none;stroke-opacity:1"
         transform="matrix(1.3333333,0,0,-1.3333333,36.933333,27.333333)"
         clip-path="url(#clipPath119)"
         id="path120" />
    </g>
    <g
       id="g123"
       clip-path="url(#clipPath124)">
      <path
         d="M 0,0 53.3,-4.4"
         style="fill:none;stroke:#b5b5b6;stroke-width:3.59;stroke-linecap:round;stroke-linejoin:miter;stroke-miterlimit:10;stroke-dasharray:none;stroke-opacity:1"
         transform="matrix(1.3333333,0,0,-1.3333333,11.466667,53.333333)"
         clip-path="url(#clipPath122)"
         id="path123" />
    </g>
    <g
       id="g126"
       clip-path="url(#clipPath127)">
      <path
         d="M 0,0 13.6,-34.9"
         style="fill:none;stroke:#fbd026;stroke-width:3.59;stroke-linecap:round;stroke-linejoin:miter;stroke-miterlimit:10;stroke-dasharray:none;stroke-opacity:1"
         transform="matrix(1.3333333,0,0,-1.3333333,64.4,12.666667)"
         clip-path="url(#clipPath125)"
         id="path126" />
    </g>
  </g>
</svg>
